<svg width="14" height="14" viewBox="0 0 14 14" fill="none" xmlns="http://www.w3.org/2000/svg">
<g clip-path="url(#clip0_1_7047)">
<path d="M10.7957 14C8.26694 14 5.73783 14 3.20908 14C3.17445 13.9916 3.13981 13.9789 3.10481 13.9752C1.39273 13.7904 0.0302786 12.3076 0.0204348 10.5806C0.00730981 8.19365 0.00949696 5.80635 0.0200699 3.41906C0.0266324 1.97167 1.00153 0.647865 2.37674 0.193959C2.64616 0.105 2.93127 0.0634375 3.20908 0C5.73783 0 8.26694 0 10.7957 0C10.826 0.00802083 10.8559 0.0200526 10.8868 0.0233339C12.3116 0.189219 13.4721 1.17688 13.8567 2.55938C13.9151 2.76865 13.9457 2.98557 13.9891 3.19922C13.9891 5.73307 13.9891 8.26693 13.9891 10.8008C13.9807 10.8358 13.9683 10.8704 13.9643 10.9061C13.8079 12.2989 12.8056 13.4859 11.4603 13.8611C11.2427 13.9216 11.0174 13.9544 10.7957 14ZM12.822 6.99781C12.822 5.86323 12.8228 4.72828 12.8213 3.5937C12.821 3.45734 12.8217 3.3188 12.8005 3.185C12.6084 1.97422 11.6689 1.17068 10.4424 1.16995C8.14992 1.16812 5.85778 1.16922 3.56528 1.17031C3.44278 1.17031 3.31845 1.17068 3.19814 1.18964C1.99283 1.37849 1.18455 2.32385 1.18346 3.55031C1.18127 5.85156 1.18273 8.15318 1.18382 10.4544C1.18382 10.5773 1.18528 10.7016 1.20497 10.8223C1.39856 12.024 2.33882 12.8293 3.5558 12.8308C5.85268 12.8333 8.14955 12.8326 10.4464 12.8293C10.6225 12.829 10.8026 12.8173 10.9743 12.7801C12.0823 12.5398 12.8184 11.6123 12.8217 10.457C12.8242 9.3038 12.822 8.15063 12.822 6.99781Z" fill="#212225" fill-opacity="0.82"/>
<path d="M6.42252 7.58122C6.24971 7.58122 6.10023 7.58122 5.95075 7.58122C5.3233 7.58085 4.69585 7.58377 4.06877 7.57794C3.8132 7.57575 3.60648 7.40695 3.53502 7.16559C3.46502 6.92934 3.53794 6.6683 3.74757 6.53887C3.86059 6.46887 4.00861 6.42622 4.14169 6.4244C4.84169 6.41346 5.54205 6.41929 6.24205 6.41929C6.29565 6.41929 6.34924 6.41929 6.42289 6.41929C6.42289 6.35294 6.42289 6.30044 6.42289 6.24757C6.42289 5.52788 6.41924 4.8082 6.42471 4.08851C6.42799 3.67179 6.817 3.39872 7.19836 3.53434C7.43898 3.62002 7.58153 3.83257 7.5819 4.11986C7.58372 4.82606 7.58263 5.53189 7.58263 6.23809C7.58263 6.29169 7.58263 6.34565 7.58263 6.41966C7.64861 6.41966 7.70111 6.41966 7.75361 6.41966C8.47184 6.41966 9.19044 6.41601 9.90867 6.42148C10.3188 6.42476 10.5904 6.80356 10.4658 7.18346C10.3845 7.43174 10.1686 7.58012 9.87731 7.58085C9.17257 7.58268 8.46783 7.58158 7.76309 7.58158C7.7095 7.58158 7.65591 7.58158 7.58226 7.58158C7.58226 7.64794 7.58226 7.7008 7.58226 7.75367C7.58226 8.47335 7.58627 9.19304 7.58007 9.91273C7.57679 10.324 7.19836 10.5952 6.81883 10.4705C6.57528 10.3903 6.42398 10.1756 6.42289 9.8945C6.4207 9.18393 6.42216 8.47335 6.42216 7.76278C6.42252 7.70846 6.42252 7.65486 6.42252 7.58122Z" fill="#212225" fill-opacity="0.82"/>
</g>
<defs>
<clipPath id="clip0_1_7047">
<rect width="14" height="14" fill="white"/>
</clipPath>
</defs>
</svg>
