<svg width="16" height="16" viewBox="0 0 16 16" fill="none" xmlns="http://www.w3.org/2000/svg">
<path d="M13.4187 15.5C9.8058 15.5 6.19293 15.5 2.58006 15.5C2.55842 15.4912 2.53751 15.4773 2.51477 15.4736C1.69096 15.3408 1.09016 14.899 0.730709 14.1497C0.621406 13.9218 0.575192 13.6639 0.5 13.4198C0.5 10.1971 0.5 6.97428 0.5 3.75112C0.509537 3.7247 0.522739 3.69865 0.527874 3.67113C0.712002 2.67931 1.28199 2.01882 2.25618 1.76124C2.6116 1.6673 3.00003 1.69666 3.37342 1.67134C3.43908 1.66693 3.5051 1.6706 3.57589 1.6706C3.57589 1.55502 3.57589 1.46218 3.57589 1.36972C3.57589 1.27211 3.57332 1.17414 3.57736 1.0769C3.58726 0.820415 3.74168 0.609427 3.97276 0.532004C4.34908 0.405412 4.72981 0.668504 4.74558 1.07213C4.75328 1.26954 4.74705 1.46769 4.74705 1.6629C5.63761 1.6629 6.5047 1.6629 7.38463 1.6629C7.38463 1.48053 7.38316 1.30587 7.38499 1.13121C7.3883 0.760238 7.63258 0.49898 7.97259 0.500081C8.31224 0.501182 8.55322 0.762806 8.55615 1.13524C8.55762 1.30954 8.55652 1.48383 8.55652 1.66143C9.45222 1.66143 10.3325 1.66143 11.2223 1.66143C11.2223 1.482 11.2212 1.31174 11.2227 1.14148C11.2253 0.760605 11.4696 0.496412 11.8147 0.500081C12.154 0.50375 12.3913 0.765375 12.3939 1.13965C12.395 1.31357 12.3942 1.4875 12.3942 1.67097C12.6363 1.67097 12.8604 1.66473 13.0838 1.6728C13.2635 1.67941 13.4462 1.68638 13.6215 1.72271C14.7365 1.95351 15.4965 2.89726 15.4984 4.05458C15.5013 6.07602 15.4995 8.09783 15.4991 10.1193C15.4991 10.5875 15.2761 10.8124 14.8114 10.8124C13.5764 10.8128 12.341 10.8124 11.1061 10.8124C11.0496 10.8124 10.9935 10.8124 10.937 10.8124C10.937 11.9936 10.937 13.1538 10.937 14.3284C10.9913 14.3284 11.0389 14.3284 11.0863 14.3284C11.7454 14.3284 12.4045 14.3291 13.0636 14.3284C13.8005 14.3276 14.2737 13.8873 14.3283 13.1531C14.3544 12.8027 14.6085 12.5594 14.9364 12.5722C15.2706 12.5851 15.5141 12.8533 15.4965 13.2125C15.4511 14.139 15.0149 14.8274 14.1915 15.2494C13.9527 15.3708 13.6769 15.4182 13.4187 15.5ZM11.2216 2.8536C10.3233 2.8536 9.44305 2.8536 8.55542 2.8536C8.55542 3.04918 8.55762 3.23411 8.55468 3.41941C8.55138 3.63444 8.46335 3.80763 8.27996 3.92321C7.89667 4.16466 7.40664 3.90377 7.38646 3.44546C7.37766 3.24769 7.38499 3.04918 7.38499 2.8547C6.49333 2.8547 5.62294 2.8547 4.74705 2.8547C4.74705 3.05138 4.74962 3.23668 4.74631 3.42198C4.74265 3.63701 4.65352 3.80983 4.46939 3.92432C4.08499 4.16392 3.59717 3.90157 3.57809 3.44253C3.57002 3.24512 3.57662 3.04697 3.57662 2.84589C3.30043 2.84589 3.04625 2.83342 2.7939 2.84846C2.25802 2.88039 1.82044 3.20732 1.72251 3.7258C1.64768 4.12173 1.67336 4.53636 1.65428 4.94182C5.9006 4.94182 10.1099 4.94182 14.3221 4.94182C14.3221 4.60498 14.3382 4.27731 14.3184 3.9522C14.2861 3.42088 13.9575 2.99891 13.4447 2.89286C13.1073 2.82314 12.7511 2.84516 12.3928 2.82535C12.3928 3.0422 12.395 3.222 12.3924 3.4018C12.3869 3.75883 12.1356 4.01715 11.8008 4.01385C11.4718 4.01018 11.2275 3.75442 11.2216 3.404C11.2194 3.22384 11.2216 3.04367 11.2216 2.8536ZM6.25235 6.13069C6.25235 7.30635 6.25235 8.46953 6.25235 9.62831C7.42607 9.62831 8.58916 9.62831 9.74895 9.62831C9.74895 8.45669 9.74895 7.29681 9.74895 6.13069C8.58146 6.13069 7.42167 6.13069 6.25235 6.13069ZM6.25198 10.8186C6.25198 11.9932 6.25198 13.1568 6.25198 14.3163C7.42534 14.3163 8.58843 14.3163 9.74932 14.3163C9.74932 13.145 9.74932 11.9851 9.74932 10.8186C8.58183 10.8186 7.42241 10.8186 6.25198 10.8186ZM5.06359 6.13473C3.92801 6.13473 2.8038 6.13473 1.68363 6.13473C1.68363 7.30855 1.68363 8.47174 1.68363 9.63235C2.8159 9.63235 3.93644 9.63235 5.06359 9.63235C5.06359 8.46476 5.06359 7.30488 5.06359 6.13473ZM14.3202 6.13473C13.1847 6.13473 12.0608 6.13473 10.9403 6.13473C10.9403 7.30819 10.9403 8.47174 10.9403 9.63272C12.0726 9.63272 13.1931 9.63272 14.3202 9.63272C14.3202 8.46513 14.3202 7.30525 14.3202 6.13473ZM5.06285 10.8212C3.93058 10.8212 2.80673 10.8212 1.67226 10.8212C1.67226 10.873 1.67226 10.9159 1.67226 10.9592C1.67226 11.6666 1.67116 12.3741 1.67262 13.0819C1.67446 13.8308 2.17182 14.3265 2.92301 14.328C3.5913 14.3295 4.25959 14.3284 4.92824 14.3284C4.97079 14.3284 5.01334 14.3284 5.06322 14.3284C5.06285 13.1546 5.06285 11.995 5.06285 10.8212Z" fill="#4066CF"/>
</svg>
