<svg width="16" height="16" viewBox="0 0 16 16" fill="none" xmlns="http://www.w3.org/2000/svg">
<g clip-path="url(#clip0_1_6797)">
<path d="M0.0195312 11.2788C0.101482 11.0517 0.163922 10.8152 0.269288 10.5994C0.421874 10.2884 0.686457 10.0753 0.996701 9.90124C0.940896 9.82241 0.889776 9.75334 0.842557 9.68193C0.348118 8.93656 0.491726 7.92973 1.17543 7.34163C1.85056 6.76134 2.87612 6.76173 3.52119 7.3791C4.19631 8.02456 4.84216 8.70046 5.49973 9.36466C6.50773 10.3828 7.51612 11.4006 8.52099 12.4218C9.22733 13.1395 9.27807 14.1705 8.64939 14.8968C8.01446 15.63 6.90421 15.7194 6.15846 15.097C6.13465 15.077 6.11046 15.0583 6.08002 15.0337C6.01173 15.129 5.95007 15.2238 5.87982 15.3112C5.59495 15.6655 5.22812 15.8817 4.77895 15.9574C4.76021 15.9606 4.74343 15.975 4.72587 15.984C4.57016 15.984 4.41407 15.984 4.25836 15.984C4.24041 15.9746 4.22363 15.9598 4.2049 15.9571C3.77134 15.8911 3.42129 15.6753 3.12041 15.3654C2.89641 15.1348 2.66695 14.9089 2.43982 14.6817C2.40119 14.6431 2.36021 14.6068 2.28763 14.5385C2.07143 14.7699 1.88178 15.0076 1.657 15.205C1.30187 15.5172 0.761386 15.326 0.657191 14.8655C0.603337 14.6275 0.686068 14.4281 0.856214 14.2595C1.05017 14.0675 1.24295 13.8739 1.45055 13.6663C1.15436 13.3756 0.872994 13.0997 0.591628 12.8242C0.361384 12.599 0.190849 12.3368 0.0979707 12.0265C0.0702633 11.9336 0.045678 11.84 0.0199219 11.7467C0.0195316 11.5906 0.0195312 11.4349 0.0195312 11.2788ZM1.79475 8.68017C1.79748 8.88661 1.88763 9.02007 2.0086 9.14222C3.62226 10.7731 5.23436 12.4047 6.84724 14.0359C6.89797 14.0874 6.95143 14.1381 7.01153 14.1779C7.20899 14.3087 7.45212 14.2946 7.63514 14.1483C7.82129 13.9996 7.89582 13.7491 7.79904 13.5329C7.75807 13.4411 7.689 13.3569 7.61758 13.2843C6.01758 11.662 4.41563 10.0417 2.81368 8.42183C2.75553 8.3629 2.6966 8.30242 2.62831 8.25676C2.45465 8.14007 2.26851 8.12876 2.08353 8.2271C1.89387 8.32817 1.80138 8.49363 1.79475 8.68017ZM1.26597 11.5067C1.26714 11.6847 1.35261 11.8205 1.47436 11.9426C2.32783 12.7996 3.17973 13.6577 4.03241 14.5155C4.06909 14.5522 4.10695 14.5881 4.14792 14.6193C4.37855 14.7961 4.70012 14.7668 4.89407 14.5526C5.08724 14.3395 5.07709 14.0187 4.86909 13.808C4.50812 13.4423 4.14636 13.0774 3.78499 12.7118C3.25973 12.1803 2.73524 11.6476 2.20841 11.1172C2.03709 10.9448 1.83026 10.9092 1.60626 10.9947C1.3967 11.0755 1.2648 11.2808 1.26597 11.5067Z" fill="#4066CF"/>
<path d="M9.50639 5.65073C8.81644 4.97327 8.16083 4.32898 7.50522 3.68508C7.10522 3.29249 6.914 2.81873 6.93858 2.256C6.9858 1.1801 8.08941 0.357075 9.1259 0.645856C9.39049 0.719612 9.63673 0.85893 9.90093 0.9721C9.97195 0.877271 10.0574 0.74732 10.1589 0.631808C10.8051 -0.104583 11.9474 -0.184192 12.6736 0.476881C13.0104 0.783612 13.3054 1.13639 13.6348 1.48449C13.8662 1.25269 14.0598 1.05991 14.2521 0.865954C14.4207 0.695808 14.6205 0.612685 14.859 0.666929C15.3199 0.771905 15.5107 1.31473 15.1965 1.6683C14.9975 1.8923 14.7595 2.08195 14.5163 2.30791C14.6853 2.46986 14.8266 2.59122 14.9511 2.72781C15.2227 3.02595 15.5353 3.30147 15.7437 3.63981C16.377 4.67083 15.6715 6.09288 14.4722 6.26342C13.84 6.35356 13.307 6.16508 12.857 5.71786C11.6266 4.49483 10.3938 3.27415 9.16376 2.05112C8.99829 1.88644 8.81527 1.78927 8.57722 1.85717C8.20297 1.96371 8.06054 2.40039 8.29976 2.70595C8.33176 2.74654 8.36883 2.78322 8.40551 2.82029C10.0016 4.42693 11.5977 6.03317 13.1942 7.63942C13.5017 7.94888 13.7331 7.96137 14.0781 7.68937C14.3571 7.46966 14.7228 7.4962 14.946 7.75259C15.1704 8.01054 15.1505 8.37346 14.8988 8.62322C14.2463 9.26946 13.1587 9.30732 12.4824 8.67512C11.9247 8.15415 11.4002 7.59805 10.8605 7.05834C10.6916 6.88937 10.5214 6.72234 10.3083 6.51161C10.2763 6.56468 10.2525 6.62712 10.2096 6.67044C9.27615 7.60976 8.33956 8.54673 7.40532 9.48527C7.22502 9.66634 7.02015 9.76703 6.76063 9.70069C6.31302 9.58556 6.14054 9.07591 6.42463 8.71298C6.466 8.65991 6.514 8.61191 6.56161 8.5643C7.48571 7.63747 8.40981 6.71064 9.33507 5.78498C9.37449 5.74439 9.42444 5.71395 9.50639 5.65073ZM11.5661 1.2683C11.264 1.28703 11.0849 1.3881 10.9924 1.60429C10.8957 1.83103 10.9347 2.04566 11.1103 2.22088C11.9958 3.10517 12.8812 3.98869 13.7721 4.86752C14.0129 5.10517 14.3505 5.10205 14.5671 4.88078C14.7872 4.65639 14.7879 4.32469 14.5499 4.08625C13.6656 3.20117 12.7786 2.31844 11.8845 1.44313C11.7878 1.34908 11.6391 1.30732 11.5661 1.2683Z" fill="#4066CF"/>
</g>
<defs>
<clipPath id="clip0_1_6797">
<rect width="16" height="16" fill="white"/>
</clipPath>
</defs>
</svg>
