<svg width="17" height="16" viewBox="0 0 17 16" fill="none" xmlns="http://www.w3.org/2000/svg">
<g clip-path="url(#clip0_1_6807)">
<path d="M16.486 10.25C16.4675 10.2927 16.4495 10.3356 16.4303 10.3779C16.2774 10.7145 15.8921 10.8421 15.5634 10.6743C15.4845 10.634 15.3889 10.6074 15.3009 10.6071C13.9963 10.6029 12.6916 10.6068 11.3869 10.6034C10.1382 10.6001 9.16836 9.77842 8.95344 8.54955C8.72153 7.22334 9.75565 5.87855 11.0933 5.78163C11.4658 5.75463 11.8411 5.76221 12.2152 5.76121C13.156 5.75871 14.0968 5.76038 15.0376 5.76038C15.0988 5.76038 15.1599 5.76038 15.2586 5.76038C15.2354 5.46063 15.2479 5.17005 15.1845 4.89713C15.0576 4.35092 14.5726 3.99655 13.9915 3.9773C13.9188 3.97488 13.846 3.97655 13.7732 3.97655C10.2179 3.97655 6.66248 3.97634 3.10715 3.97671C2.46419 3.9768 1.98082 4.31255 1.81932 4.87942C1.78419 5.00272 1.76719 5.13542 1.76707 5.26384C1.76415 7.92513 1.7639 10.5865 1.76548 13.2478C1.76594 13.991 2.30165 14.5322 3.04294 14.5326C6.68148 14.5348 10.32 14.5346 13.9585 14.5327C14.6805 14.5323 15.2199 14.0057 15.2383 13.2967C15.2476 12.9383 15.4403 12.691 15.7557 12.6328C16.0642 12.5758 16.3313 12.7466 16.463 13.0845C16.4686 13.0989 16.4783 13.1115 16.4861 13.125C16.4861 13.2708 16.4861 13.4167 16.4861 13.5625C16.4761 13.5965 16.4617 13.6299 16.4566 13.6646C16.2834 14.8484 15.2472 15.7773 14.0554 15.7798C10.3553 15.7872 6.65511 15.7878 2.95498 15.7797C1.63586 15.7768 0.525609 14.6655 0.5209 13.3456C0.511234 10.6224 0.512275 7.89909 0.5204 5.17584C0.52415 3.92463 1.51857 2.86184 2.76073 2.74184C2.86586 2.73167 2.97557 2.69971 3.06932 2.65113C4.51223 1.90359 5.95211 1.15017 7.39428 0.401256C8.22532 -0.0303275 9.09461 0.318173 9.40986 1.20409C9.43728 1.28117 9.4669 1.35751 9.49828 1.44163C9.54794 1.42863 9.58736 1.41963 9.62598 1.40805C10.4707 1.15442 11.3155 0.901048 12.1599 0.646423C12.9379 0.411839 13.7506 0.865798 13.9113 1.65521C13.9696 1.94171 13.9438 2.24546 13.9554 2.54134C13.9578 2.60071 13.9558 2.66026 13.9558 2.72026C14.0227 2.72476 14.0641 2.72717 14.1054 2.73034C15.2433 2.8183 16.1273 3.53921 16.4069 4.60809C16.4355 4.7173 16.4598 4.82767 16.4861 4.93746C16.486 6.70838 16.486 8.47921 16.486 10.25ZM15.2303 7.02334C15.2034 7.01846 15.1836 7.01171 15.1638 7.01171C13.8917 7.01146 12.6196 7.00738 11.3475 7.01434C10.8912 7.01684 10.5368 7.22651 10.3162 7.62909C9.88727 8.41196 10.4479 9.34496 11.3573 9.35163C12.6137 9.36088 13.8703 9.35413 15.1269 9.35355C15.161 9.35355 15.1951 9.3458 15.2303 9.34151C15.2303 8.56276 15.2303 7.79521 15.2303 7.02334ZM8.61723 2.71763C8.48869 2.34892 8.36532 1.99213 8.23982 1.63609C8.17319 1.44709 8.12402 1.42926 7.94152 1.52417C7.22894 1.8948 6.51661 2.26588 5.8044 2.63726C5.77069 2.65484 5.73919 2.67667 5.67211 2.71763C6.67598 2.71763 7.6369 2.71763 8.61723 2.71763ZM12.7082 2.71521C12.7082 2.49176 12.7091 2.2748 12.708 2.05788C12.7069 1.84717 12.6516 1.80509 12.4532 1.86463C11.6446 2.10726 10.8362 2.35038 10.0279 2.59421C9.99036 2.60555 9.95528 2.62501 9.91903 2.64067C9.91782 2.65701 9.91661 2.67338 9.9154 2.68971C9.96532 2.70201 10.0152 2.72488 10.0652 2.72505C10.9004 2.72726 11.7358 2.72676 12.5711 2.72617C12.6113 2.72613 12.6515 2.71992 12.7082 2.71521Z" fill="#4066CF"/>
<path d="M11.117 8.17943C11.1186 7.83276 11.398 7.55814 11.7449 7.56218C12.0783 7.56609 12.36 7.85014 12.36 8.18239C12.3599 8.52226 12.0715 8.81059 11.7338 8.80847C11.386 8.8063 11.1153 8.53022 11.117 8.17943Z" fill="#4066CF"/>
</g>
<defs>
<clipPath id="clip0_1_6807">
<rect width="16" height="16" fill="white" transform="translate(0.5)"/>
</clipPath>
</defs>
</svg>
