<svg width="16" height="16" viewBox="0 0 16 16" fill="none" xmlns="http://www.w3.org/2000/svg">
<g clip-path="url(#clip0_1_6697)">
<path d="M7.77916 16.0236C7.4743 15.9523 7.17591 15.866 6.91854 15.6762C6.41038 15.3016 6.15352 14.7942 6.12065 14.1449C6.06383 14.1449 6.00928 14.1449 5.95473 14.1449C5.04152 14.1446 4.12814 14.1551 3.21512 14.1412C2.0705 14.1237 1.27308 13.1354 1.37885 12.1047C1.44097 11.4994 1.62528 10.9204 1.89191 10.3743C2.12265 9.90176 2.37414 9.4387 2.63199 8.98015C2.9565 8.40301 3.12603 7.79313 3.11312 7.1276C3.1021 6.55976 3.07752 5.98815 3.20591 5.42831C3.62238 3.61258 4.71246 2.38647 6.45983 1.74964C6.70763 1.65933 6.97297 1.6138 7.23305 1.56203C7.33442 1.54188 7.37383 1.51082 7.37081 1.40388C7.36363 1.14839 7.36544 0.892505 7.36956 0.636858C7.37552 0.269171 7.63191 0.00101445 7.97861 -0.00667183C8.32791 -0.0144365 8.60681 0.254152 8.61834 0.625132C8.62759 0.921799 8.62022 1.21898 8.62022 1.53168C8.75014 1.55368 8.8734 1.56811 8.99352 1.59588C10.53 1.95109 11.6596 2.83145 12.3761 4.23537C12.7365 4.94145 12.8721 5.70031 12.881 6.48799C12.8862 6.94117 12.8614 7.40235 12.9379 7.8447C13.0012 8.21101 13.1847 8.55874 13.3319 8.90752C13.4079 9.08748 13.4593 9.26199 13.397 9.45105C13.316 9.69701 13.1391 9.84286 12.8853 9.8765C12.6233 9.91121 12.4072 9.80925 12.2745 9.58184C11.9649 9.05097 11.7207 8.48956 11.6682 7.87152C11.6285 7.40486 11.6348 6.93403 11.6275 6.46497C11.6057 5.07407 11.0202 3.99666 9.83752 3.25713C8.66285 2.52262 7.00991 2.59388 5.89614 3.42258C4.8821 4.17713 4.36999 5.18654 4.3605 6.45399C4.35685 6.94372 4.34846 7.43486 4.30752 7.92243C4.26014 8.48639 4.03654 8.99941 3.77438 9.49595C3.49234 10.0302 3.19316 10.5571 2.94473 11.1067C2.79842 11.4304 2.71528 11.7877 2.64159 12.1378C2.55395 12.5543 2.83363 12.8751 3.26073 12.892C3.28677 12.893 3.31293 12.8925 3.33901 12.8925C6.44395 12.8925 9.54889 12.8923 12.6538 12.893C12.8299 12.8931 12.9979 12.8708 13.139 12.7542C13.3072 12.6153 13.3854 12.4373 13.3722 12.218C13.3662 12.1197 13.3539 12.0181 13.3711 11.9228C13.4269 11.613 13.6803 11.4103 13.9911 11.4126C14.2928 11.4148 14.5477 11.6346 14.6015 11.9389C14.8005 13.0634 13.9525 14.1167 12.8074 14.1396C11.8997 14.1579 10.9914 14.1444 10.0834 14.145C10.0218 14.145 9.96018 14.145 9.92654 14.145C9.85363 14.413 9.81634 14.6751 9.71257 14.9075C9.44363 15.5099 8.9701 15.8726 8.31767 15.995C8.29375 15.9995 8.27171 16.0139 8.24881 16.0236C8.09226 16.0236 7.93571 16.0236 7.77916 16.0236ZM7.39018 14.1526C7.39379 14.5002 7.66214 14.7689 8.00199 14.77C8.34485 14.7712 8.61842 14.5009 8.61901 14.1526C8.20944 14.1526 7.79987 14.1526 7.39018 14.1526Z" fill="#212225" fill-opacity="0.72"/>
</g>
<defs>
<clipPath id="clip0_1_6697">
<rect width="16" height="16" fill="white"/>
</clipPath>
</defs>
</svg>
