<svg width="16" height="16" viewBox="0 0 16 16" fill="none" xmlns="http://www.w3.org/2000/svg">
<g clip-path="url(#clip0_1_6741)">
<path d="M15.4872 13.039C15.4872 13.1658 15.4872 13.293 15.4872 13.4198C15.4781 13.4415 15.4647 13.4623 15.4611 13.4849C15.3287 14.3087 14.8878 14.9096 14.1398 15.2691C13.9125 15.3783 13.655 15.4246 13.4112 15.4999C9.80508 15.4999 6.19864 15.4999 2.59249 15.4999C2.57081 15.4908 2.54971 15.4774 2.52716 15.4736C1.35909 15.2872 0.524128 14.3456 0.51944 13.1685C0.510065 10.8253 0.510652 8.48186 0.520027 6.1387C0.523249 5.34768 0.850496 4.69846 1.50206 4.24114C1.94825 3.92795 2.41407 3.64231 2.87462 3.35022C2.96602 3.29221 3.00616 3.2342 3.00499 3.11995C2.99796 2.49036 3.01143 1.86018 2.99796 1.23088C2.99005 0.867896 3.12012 0.619165 3.46964 0.499634C6.49102 0.499634 9.51241 0.499634 12.5341 0.499634C12.8824 0.618872 13.0137 0.866724 13.0058 1.22942C12.992 1.85784 13.0046 2.48713 12.9996 3.11585C12.9987 3.22454 13.0263 3.28928 13.1232 3.34934C13.5366 3.6054 13.9433 3.87258 14.3528 4.13508C14.7645 4.39875 15.0955 4.73801 15.2786 5.19563C15.3715 5.42766 15.4192 5.67786 15.4875 5.91956C15.4875 7.39407 15.4875 8.86887 15.4875 10.3434C15.4682 10.3876 15.45 10.4322 15.4292 10.4758C15.2581 10.8341 14.7949 10.9243 14.5055 10.6539C14.3646 10.5224 14.3165 10.3545 14.3168 10.1647C14.3189 9.1346 14.3177 8.10452 14.3177 7.07444C14.3177 7.02493 14.3177 6.97542 14.3177 6.90657C14.2359 6.95696 14.182 6.98977 14.1284 7.02317C12.5285 8.02014 10.9283 9.01653 9.3293 10.0147C8.83887 10.3208 8.31387 10.4746 7.73204 10.4064C7.34678 10.3613 7.0002 10.2171 6.67413 10.0138C5.07042 9.01389 3.46641 8.01428 1.86241 7.01467C1.81055 6.98245 1.75694 6.95286 1.68604 6.91125C1.68604 6.96604 1.68604 6.99856 1.68604 7.03137C1.68604 9.05754 1.68546 11.0834 1.6878 13.1096C1.68809 13.2253 1.70128 13.3451 1.73233 13.4562C1.88497 14.0005 2.32266 14.3251 2.90479 14.3272C3.74298 14.3301 4.58087 14.3281 5.41905 14.3281C7.96261 14.3281 10.5059 14.3275 13.0494 14.3289C13.3398 14.3289 13.6096 14.27 13.8451 14.0913C14.1627 13.8499 14.3016 13.5221 14.3209 13.1301C14.3332 12.884 14.4607 12.705 14.69 12.6136C14.9142 12.5242 15.1283 12.5647 15.298 12.7331C15.3809 12.8155 15.4254 12.9359 15.4872 13.039ZM11.8324 1.68235C9.26954 1.68235 6.72423 1.68235 4.17598 1.68235C4.17423 1.71692 4.17188 1.74094 4.17188 1.76497C4.17159 3.49817 4.17276 5.23167 4.16895 6.96487C4.16866 7.06038 4.2126 7.1011 4.28262 7.14446C5.28809 7.76907 6.29473 8.39221 7.29639 9.02327C7.77159 9.32268 8.23214 9.32268 8.70733 9.02327C9.7046 8.39456 10.7063 7.77288 11.7094 7.15325C11.8061 7.09348 11.8351 7.03049 11.8348 6.92092C11.8313 5.22669 11.8324 3.53245 11.8324 1.83821C11.8324 1.78987 11.8324 1.74153 11.8324 1.68235ZM2.99239 6.3385C2.99239 5.77073 2.99239 5.22786 2.99239 4.65159C2.58721 4.97532 2.07833 5.12444 1.81671 5.60608C2.21163 5.85188 2.59425 6.09036 2.99239 6.3385ZM13.0113 4.65305C13.0113 5.23489 13.0113 5.77688 13.0113 6.33821C13.4092 6.09065 13.7912 5.85276 14.1858 5.60696C13.9245 5.12825 13.4165 4.97883 13.0113 4.65305Z" fill="#4066CF"/>
<path d="M7.35187 7.61876C7.2382 7.61876 7.12717 7.6214 7.01643 7.61818C6.67834 7.6088 6.42668 7.36095 6.42434 7.03751C6.4217 6.70851 6.67658 6.45304 7.02229 6.44835C7.38762 6.44337 7.75295 6.44777 8.11857 6.44689C8.33713 6.4463 8.38254 6.39328 8.38225 6.14542C8.38195 5.91017 8.33684 5.85802 8.12004 5.85978C7.78225 5.86271 7.4468 5.8589 7.14445 5.6758C6.67336 5.39044 6.44074 4.96505 6.45803 4.42101C6.47561 3.87111 6.75275 3.47238 7.24816 3.23419C7.33049 3.19464 7.36154 3.15597 7.36184 3.06339C7.3633 2.69572 7.60031 2.44054 7.93342 2.43468C8.26623 2.42853 8.5091 2.67638 8.52902 3.0423C8.5299 3.05665 8.53166 3.07101 8.534 3.09562C8.57707 3.10587 8.62248 3.11583 8.66789 3.12785C8.95471 3.20285 9.13928 3.4633 9.10998 3.7507C9.08039 4.03956 8.85041 4.26398 8.55539 4.27599C8.32688 4.28537 8.09748 4.27804 7.86867 4.2798C7.69992 4.28097 7.61965 4.34806 7.62346 4.48019C7.62727 4.61056 7.71457 4.68029 7.87131 4.6882C8.08957 4.69933 8.31516 4.68468 8.52434 4.73595C9.10119 4.87804 9.46682 5.30724 9.5383 5.9008C9.60832 6.4838 9.48322 6.99855 8.9799 7.36535C8.97199 7.37121 8.96525 7.37882 8.95647 7.38292C8.82932 7.44298 8.6717 7.47462 8.58381 7.57043C8.50441 7.65714 8.51555 7.82033 8.46223 7.93869C8.3591 8.16749 8.10041 8.29552 7.85842 8.25656C7.60383 8.21554 7.40813 8.01984 7.36682 7.76232C7.35891 7.71984 7.35744 7.67648 7.35187 7.61876Z" fill="#4066CF"/>
</g>
<defs>
<clipPath id="clip0_1_6741">
<rect width="15" height="15" fill="white" transform="translate(0.5 0.5)"/>
</clipPath>
</defs>
</svg>
