<svg width="17" height="16" viewBox="0 0 17 16" fill="none" xmlns="http://www.w3.org/2000/svg">
<path d="M8.7338 0.507324C8.90121 0.554544 9.0737 0.588885 9.23526 0.651324C10.1488 1.00528 10.6593 1.98674 10.4333 2.9401C10.4255 2.97289 10.4208 3.00684 10.4103 3.06654C10.4743 3.06654 10.5297 3.06615 10.5851 3.06654C11.1057 3.07045 11.6282 3.05054 12.1473 3.08293C13.2723 3.15318 14.1937 4.10069 14.2589 5.23123C14.2737 5.48879 14.2686 5.74791 14.2686 6.00625C14.2694 7.3963 14.2698 8.78635 14.2686 10.176C14.2682 10.5354 14.0934 10.7629 13.78 10.8215C13.4729 10.8788 13.1638 10.663 13.1143 10.3528C13.1022 10.2763 13.101 10.1975 13.101 10.1194C13.1002 8.57835 13.0995 7.03727 13.1014 5.49581C13.1018 5.21562 13.0526 4.95259 12.8833 4.72274C12.6401 4.39298 12.3104 4.2365 11.9034 4.23689C9.63487 4.23689 7.36599 4.23493 5.09751 4.23806C4.37712 4.23923 3.90024 4.73718 3.90024 5.4802C3.89907 8.01132 3.89985 10.5424 3.89985 13.074C3.89985 13.1032 3.89946 13.1325 3.90063 13.1618C3.92521 13.8423 4.4138 14.32 5.09321 14.3212C6.36853 14.3231 7.64424 14.322 8.91956 14.322C9.8979 14.322 10.8766 14.3223 11.855 14.322C12.5754 14.3216 13.0312 13.904 13.0987 13.184C13.1299 12.85 13.3215 12.6267 13.6037 12.5947C13.9814 12.5518 14.2819 12.8238 14.2647 13.2121C14.2234 14.1518 13.7769 14.8406 12.9398 15.2589C12.7139 15.3717 12.4544 15.417 12.2105 15.4931C9.73711 15.4931 7.26336 15.4931 4.78999 15.4931C4.76346 15.4837 4.73731 15.4704 4.70999 15.4662C4.3978 15.4197 4.10512 15.3167 3.84092 15.1454C3.10024 14.6658 2.73185 13.9805 2.73146 13.097C2.73107 10.5518 2.73107 8.00703 2.73185 5.46186C2.73185 5.38381 2.73536 5.30576 2.74004 5.2281C2.81185 4.09757 3.7297 3.15279 4.85516 3.08254C5.37419 3.05015 5.89594 3.07006 6.41653 3.06615C6.47155 3.06576 6.52658 3.06615 6.58941 3.06615C6.57965 3.00996 6.57731 2.98069 6.5699 2.95298C6.33185 2.09445 6.78375 1.02362 7.79214 0.639617C7.94512 0.581471 8.10824 0.550641 8.26668 0.507324C8.42199 0.507324 8.5777 0.507324 8.7338 0.507324ZM8.48755 3.06654C8.59448 3.06654 8.70141 3.06654 8.80872 3.06654C9.19819 3.06654 9.19819 3.06654 9.29107 2.69113C9.39799 2.25913 9.14941 1.82635 8.72833 1.71006C8.2897 1.58908 7.84326 1.83571 7.71019 2.2642C7.63526 2.50498 7.72385 2.72469 7.77224 2.95103C7.79019 3.03493 7.82687 3.0724 7.91897 3.06889C8.10824 3.06147 8.2979 3.06654 8.48755 3.06654Z" fill="#4066CF"/>
<path d="M10.1036 9.42203C10.2167 9.51881 10.3284 9.60544 10.4294 9.703C10.9914 10.247 11.2876 10.9104 11.3051 11.6944C11.3098 11.904 11.3063 12.1139 11.3008 12.3235C11.2911 12.6876 11.053 12.9252 10.6885 12.9256C9.22826 12.928 7.76835 12.9276 6.30806 12.9256C5.98455 12.9252 5.73284 12.7305 5.71138 12.4214C5.67391 11.8817 5.65713 11.3397 5.84718 10.8164C6.04035 10.2849 6.35723 9.84505 6.80601 9.50125C6.82904 9.48369 6.85284 9.46652 6.87508 9.4474C6.88211 9.44154 6.88562 9.43139 6.8903 9.4232C5.93499 8.37891 6.17421 6.92759 7.04328 6.18261C7.92328 5.42827 9.21577 5.46105 10.045 6.263C10.8712 7.06222 11.0039 8.43861 10.1036 9.42203ZM6.87235 11.7448C7.96386 11.7448 9.0464 11.7448 10.1278 11.7448C10.1871 10.8847 9.40621 10.1022 8.49967 10.1022C7.59391 10.1026 6.81069 10.8878 6.87235 11.7448ZM9.55411 7.87549C9.55684 7.28817 9.0866 6.81013 8.50318 6.807C7.92835 6.80388 7.4503 7.27686 7.44562 7.85403C7.44055 8.44837 7.91743 8.93344 8.50357 8.93032C9.08074 8.92681 9.55177 8.45422 9.55411 7.87549Z" fill="#4066CF"/>
</svg>
