<svg width="15" height="15" viewBox="0 0 15 15" fill="none" xmlns="http://www.w3.org/2000/svg">
<g clip-path="url(#clip0_1_3966)">
<path d="M12.9074 7.34925e-05C13.1301 0.0651126 13.3653 0.103199 13.5733 0.199878C14.4801 0.62146 14.9723 1.34392 14.9784 2.34529C14.9937 4.79128 14.9837 7.23728 14.9831 9.68328C14.9831 10.0512 14.7353 10.3137 14.3951 10.312C14.0564 10.3102 13.8142 10.0471 13.8142 9.67654C13.8136 7.25017 13.8145 4.82351 13.8136 2.39714C13.8133 1.75994 13.4192 1.28533 12.809 1.18513C12.7325 1.17253 12.6537 1.17224 12.5761 1.17224C9.18965 1.17166 5.80293 1.17136 2.4165 1.17195C1.68291 1.17195 1.18311 1.6697 1.18281 2.40066C1.18223 5.7988 1.18223 9.19666 1.18281 12.5948C1.18281 13.3272 1.68174 13.8273 2.41269 13.8276C4.21064 13.8285 6.00889 13.8279 7.80684 13.8279C7.85459 13.8279 7.90205 13.8279 7.95801 13.8279C7.95801 12.402 7.95801 10.9879 7.95801 9.55056C7.91025 9.55056 7.85928 9.55056 7.8083 9.55056C7.43301 9.55056 7.05801 9.55203 6.68271 9.54998C6.31357 9.54822 6.06895 9.30388 6.06602 8.93562C6.06426 8.73054 6.06279 8.52546 6.0666 8.32039C6.07275 7.98699 6.31943 7.73855 6.65225 7.73503C7.03223 7.73093 7.4125 7.73386 7.79248 7.73386C7.84492 7.73386 7.89766 7.73386 7.96621 7.73386C7.96621 7.66999 7.96621 7.61785 7.96621 7.5657C7.96621 6.97976 7.96504 6.39382 7.9665 5.80818C7.97002 4.21062 9.33291 2.95525 10.9226 3.08474C11.0975 3.0991 11.2721 3.11462 11.4464 3.13279C11.7382 3.16296 11.9597 3.39382 11.9696 3.68767C11.977 3.90212 11.9772 4.11746 11.9696 4.33191C11.9588 4.64099 11.713 4.8824 11.4024 4.89031C11.159 4.89675 10.9152 4.89002 10.6715 4.89265C10.1626 4.89763 9.78262 5.27322 9.77998 5.78064C9.77646 6.42459 9.7791 7.06853 9.7791 7.73386C9.84707 7.73386 9.90801 7.73386 9.96895 7.73386C10.3686 7.73386 10.7682 7.73269 11.1678 7.73416C11.5873 7.73591 11.8428 8.03767 11.7836 8.45515C11.7569 8.64353 11.7376 8.83279 11.7121 9.02146C11.6688 9.34226 11.4399 9.54734 11.1159 9.54939C10.6776 9.55232 10.2394 9.54998 9.78994 9.54998C9.78994 10.9735 9.78994 12.3909 9.78994 13.8209C9.83447 13.8229 9.88135 13.8273 9.92822 13.8273C10.815 13.8276 11.7019 13.8285 12.5887 13.8273C13.2941 13.8264 13.7808 13.3568 13.8139 12.6478C13.8294 12.313 14.0849 12.0651 14.4089 12.0701C14.7317 12.0751 14.9796 12.3335 14.9831 12.6683C14.9951 13.7863 14.1285 14.8003 13.017 14.9699C12.9798 14.9755 12.9437 14.9892 12.9074 14.9992C9.30127 14.9992 5.69482 14.9992 2.08867 14.9992C2.06201 14.9901 2.03594 14.9778 2.0084 14.9725C1.01641 14.7877 0.378028 14.2088 0.088575 13.2423C0.0569344 13.1365 0.0375977 13.0269 0.0126953 12.9191C0.0126953 9.30593 0.0126953 5.69246 0.0126953 2.07927C0.0217773 2.05232 0.0337898 2.02595 0.0390632 1.99841C0.222755 1.00378 0.801659 0.36482 1.76611 0.0750734C1.87187 0.0434328 1.98115 0.0240967 2.08867 -0.00109863C5.69482 7.32421e-05 9.30127 7.34925e-05 12.9074 7.34925e-05Z" fill="#4066CF"/>
</g>
<defs>
<clipPath id="clip0_1_3966">
<rect width="15" height="15" fill="white"/>
</clipPath>
</defs>
</svg>
