<svg width="15" height="15" viewBox="0 0 15 15" fill="none" xmlns="http://www.w3.org/2000/svg">
<g clip-path="url(#clip0_1_3960)">
<path d="M15 7.05858C15 7.34188 15 7.62517 15 7.90847C14.9919 7.96058 14.9842 8.01269 14.9758 8.06443C14.9068 8.4824 14.8584 8.90514 14.7645 9.3176C14.5756 10.1484 14.2169 10.9095 13.7543 11.6229C13.6025 11.857 13.3593 11.966 13.1183 11.908C12.7273 11.8144 12.5439 11.4034 12.7383 11.0467C12.9015 10.7473 13.093 10.4611 13.2346 10.1521C13.9132 8.67065 14.0063 7.14702 13.5335 5.58744C13.5023 5.48505 13.4624 5.44249 13.3461 5.44322C12.2776 5.44872 11.2087 5.44616 10.1402 5.44652C10.0991 5.44652 10.0584 5.45093 10.0148 5.4535C10.0207 5.47588 10.021 5.48615 10.0262 5.49349C10.0456 5.52175 10.0661 5.54891 10.0863 5.57643C10.6288 6.3254 10.8247 7.1551 10.6699 8.06846C10.5918 8.529 10.3842 8.93229 10.1582 9.33448C9.3461 10.7799 8.54721 12.2327 7.74354 13.6826C7.7208 13.7241 7.70173 13.7674 7.67422 13.8232C8.25853 13.8055 8.81277 13.7138 9.35601 13.5494C9.86256 13.396 10.3339 13.1656 10.7957 12.9102C11.088 12.7487 11.4233 12.8485 11.5829 13.1234C11.7465 13.4048 11.6595 13.7479 11.3676 13.9237C10.6134 14.378 9.80461 14.6951 8.93785 14.8551C8.6081 14.916 8.27357 14.9523 7.94125 15C7.64817 15 7.35546 15 7.06239 15C7.01984 14.9916 6.97729 14.9813 6.93474 14.9747C6.52576 14.9112 6.11017 14.8771 5.70889 14.7809C1.86076 13.8595 -0.618095 9.99098 0.134584 6.09641C0.447467 4.47738 1.20345 3.09724 2.4205 1.98828C4.15694 0.406306 6.20884 -0.224868 8.534 0.0705359C10.0152 0.258787 11.3199 0.866843 12.439 1.8558C13.7569 3.02054 14.5811 4.4693 14.8845 6.20723C14.934 6.48906 14.9619 6.77456 15 7.05858ZM1.99244 4.40582C1.97153 4.43738 1.95723 4.45536 1.94659 4.47518C1.21628 5.84541 1.00281 7.29124 1.32009 8.81193C1.57942 10.0556 2.17217 11.1208 3.07414 12.0089C3.96144 12.8823 5.02113 13.4441 6.24185 13.7006C6.34566 13.7222 6.39701 13.7013 6.44836 13.6074C6.96262 12.6716 7.48164 11.7384 7.9992 10.8045C8.01974 10.7671 8.03735 10.7282 8.05569 10.6911C8.04469 10.6838 8.04065 10.6787 8.03735 10.679C8.00874 10.6809 7.97976 10.6827 7.95115 10.686C6.78949 10.8214 5.81159 10.4574 5.05121 9.57007C4.82599 9.30732 4.66937 8.9844 4.49294 8.68202C3.6856 7.30115 2.88267 5.91807 2.0779 4.53573C2.0537 4.49536 2.02582 4.45719 1.99244 4.40582ZM12.9364 4.27445C12.9151 4.23445 12.9056 4.21316 12.8931 4.19408C11.4204 1.9736 9.35931 0.953813 6.70512 1.2294C5.16492 1.3894 3.88111 2.1046 2.82692 3.23705C2.75355 3.31558 2.75025 3.36989 2.80417 3.46126C3.34301 4.37793 3.87707 5.2979 4.41261 6.21678C4.43351 6.25274 4.45919 6.28576 4.49183 6.33347C4.51531 6.28246 4.53035 6.24797 4.54685 6.21384C5.14658 4.96654 6.13328 4.2939 7.51979 4.27775C9.26724 4.2572 11.0151 4.27371 12.7625 4.27445C12.8142 4.27445 12.8656 4.27445 12.9364 4.27445ZM7.50365 5.44506C6.36326 5.44946 5.44112 6.37017 5.45359 7.50665C5.46533 8.59212 6.32732 9.53741 7.49962 9.54548C8.6279 9.55319 9.55518 8.61524 9.55151 7.48133C9.54784 6.36283 8.62057 5.44065 7.50365 5.44506Z" fill="#4066CF"/>
</g>
<defs>
<clipPath id="clip0_1_3960">
<rect width="15" height="15" fill="white"/>
</clipPath>
</defs>
</svg>
