<svg width="16" height="16" viewBox="0 0 16 16" fill="none" xmlns="http://www.w3.org/2000/svg">
<path d="M15.9923 7.96677C15.9058 8.15163 15.8083 8.32845 15.6002 8.40228C15.3472 8.49204 15.117 8.44935 14.9233 8.26067C14.7678 8.10909 14.6196 7.95003 14.4313 7.80634C14.4313 7.86012 14.4313 7.91386 14.4313 7.96763C14.4313 8.64806 14.434 9.32853 14.4303 10.009C14.4279 10.4277 14.1101 10.7055 13.7078 10.6502C13.4029 10.6084 13.1859 10.3494 13.1836 10.0127C13.1801 9.50886 13.1826 9.00498 13.1826 8.50117C13.1826 7.88826 13.1808 7.27534 13.1844 6.66242C13.185 6.56283 13.1602 6.48997 13.0871 6.41676C11.5632 4.88966 10.0422 3.35959 8.52036 1.83042C8.20278 1.51132 7.85577 1.51085 7.53718 1.8282C5.99759 3.36174 4.45741 4.89469 2.92169 6.4321C2.86436 6.48947 2.82217 6.59089 2.82194 6.67194C2.81655 8.80673 2.8171 10.9416 2.81804 13.0764C2.81831 13.7314 3.17296 14.2051 3.78053 14.3639C3.85511 14.3834 3.93433 14.3926 4.01152 14.3934C4.51088 14.3985 5.01027 14.3999 5.50963 14.4024C5.56133 14.4026 5.61304 14.4024 5.68988 14.4024C5.68988 14.3336 5.68988 14.2741 5.68988 14.2145C5.68988 12.6199 5.68976 11.0253 5.68996 9.43069C5.69004 8.9418 5.92727 8.70024 6.41425 8.69953C7.49129 8.69797 8.56832 8.69809 9.64535 8.69949C10.1341 8.70012 10.3726 8.94078 10.3727 9.42765C10.3729 11.0171 10.3728 12.6065 10.3728 14.1959C10.3728 14.2573 10.3728 14.3188 10.3728 14.3793C10.3978 14.3891 10.4115 14.3992 10.4252 14.3991C10.9713 14.3961 11.5179 14.4067 12.0633 14.3844C12.5982 14.3626 13.0746 13.9065 13.1573 13.374C13.1708 13.2869 13.1766 13.1986 13.1853 13.1108C13.2192 12.7708 13.4924 12.5263 13.8267 12.5373C14.1675 12.5484 14.4258 12.8171 14.4308 13.1658C14.4491 14.4422 13.3794 15.5896 12.1016 15.6341C11.3325 15.6609 10.5618 15.6511 9.79189 15.6469C9.36411 15.6445 9.12457 15.3874 9.12434 14.9553C9.12352 13.3555 9.12403 11.7557 9.12399 10.1558C9.12399 10.0943 9.12399 10.0327 9.12399 9.95862C8.39408 9.95862 7.67501 9.95862 6.93862 9.95862C6.93862 10.0226 6.93862 10.0836 6.93862 10.1446C6.93862 11.734 6.93874 13.3234 6.93854 14.9128C6.93851 15.4113 6.70319 15.6495 6.20399 15.6488C5.44442 15.6479 4.68411 15.6632 3.92547 15.6351C2.64914 15.5878 1.60524 14.5302 1.57581 13.2548C1.55415 12.3151 1.56945 11.3746 1.56891 10.4345C1.56844 9.56217 1.56879 8.68986 1.56879 7.77438C1.39255 7.94941 1.2413 8.10094 1.08855 8.25095C0.890973 8.44502 0.659247 8.49446 0.399734 8.40162C0.192554 8.32755 0.0925735 8.153 0.0078125 7.96673C0.0078125 7.87323 0.0078125 7.77973 0.0078125 7.68623C0.128047 7.52732 0.231383 7.35163 0.370973 7.21204C2.45886 5.124 4.5515 3.04068 6.64313 0.956353C7.45948 0.142811 8.6043 0.145075 9.41745 0.962246C11.4929 3.04798 13.5692 5.1329 15.6409 7.22234C15.7763 7.35889 15.8759 7.53079 15.9922 7.68627C15.9923 7.77977 15.9923 7.87327 15.9923 7.96677Z" fill="white" fill-opacity="0.82"/>
</svg>
