<svg width="16" height="16" viewBox="0 0 16 16" fill="none" xmlns="http://www.w3.org/2000/svg">
<path d="M15.9922 7.96677C15.9057 8.15163 15.8083 8.32845 15.6002 8.40228C15.3471 8.49204 15.1169 8.44935 14.9233 8.26067C14.7677 8.10909 14.6195 7.95003 14.4313 7.80634C14.4313 7.86012 14.4313 7.91386 14.4313 7.96763C14.4312 8.64806 14.434 9.32853 14.4302 10.009C14.4278 10.4277 14.11 10.7055 13.7077 10.6502C13.4029 10.6084 13.1858 10.3494 13.1835 10.0127C13.1801 9.50886 13.1825 9.00498 13.1825 8.50117C13.1825 7.88826 13.1807 7.27534 13.1843 6.66242C13.1849 6.56283 13.1601 6.48997 13.0871 6.41676C11.5631 4.88966 10.0422 3.35959 8.5203 1.83042C8.20272 1.51132 7.85571 1.51085 7.53712 1.8282C5.99753 3.36174 4.45735 4.89469 2.92162 6.4321C2.8643 6.48947 2.82211 6.59089 2.82188 6.67194C2.81649 8.80673 2.81704 10.9416 2.81798 13.0764C2.81825 13.7314 3.1729 14.2051 3.78047 14.3639C3.85505 14.3834 3.93427 14.3926 4.01146 14.3934C4.51082 14.3985 5.01021 14.3999 5.50957 14.4024C5.56127 14.4026 5.61298 14.4024 5.68982 14.4024C5.68982 14.3336 5.68982 14.2741 5.68982 14.2145C5.68982 12.6199 5.6897 11.0253 5.6899 9.43069C5.68998 8.9418 5.92721 8.70024 6.41419 8.69953C7.49123 8.69797 8.56826 8.69809 9.64529 8.69949C10.134 8.70012 10.3726 8.94078 10.3726 9.42765C10.3729 11.0171 10.3727 12.6065 10.3727 14.1959C10.3727 14.2573 10.3727 14.3188 10.3727 14.3793C10.3978 14.3891 10.4115 14.3992 10.4251 14.3991C10.9712 14.3961 11.5179 14.4067 12.0632 14.3844C12.5982 14.3626 13.0745 13.9065 13.1572 13.374C13.1708 13.2869 13.1765 13.1986 13.1852 13.1108C13.2191 12.7708 13.4924 12.5263 13.8266 12.5373C14.1674 12.5484 14.4257 12.8171 14.4307 13.1658C14.449 14.4422 13.3794 15.5896 12.1015 15.6341C11.3324 15.6609 10.5617 15.6511 9.79183 15.6469C9.36404 15.6445 9.12451 15.3874 9.12428 14.9553C9.12346 13.3555 9.12397 11.7557 9.12393 10.1558C9.12393 10.0943 9.12393 10.0327 9.12393 9.95862C8.39401 9.95862 7.67495 9.95862 6.93856 9.95862C6.93856 10.0226 6.93856 10.0836 6.93856 10.1446C6.93856 11.734 6.93868 13.3234 6.93848 14.9128C6.93844 15.4113 6.70313 15.6495 6.20393 15.6488C5.44436 15.6479 4.68404 15.6632 3.92541 15.6351C2.64908 15.5878 1.60518 14.5302 1.57575 13.2548C1.55409 12.3151 1.56939 11.3746 1.56884 10.4345C1.56838 9.56217 1.56873 8.68986 1.56873 7.77438C1.39249 7.94941 1.24123 8.10094 1.08849 8.25095C0.890912 8.44502 0.659186 8.49446 0.399673 8.40162C0.192493 8.32755 0.0925124 8.153 0.00775146 7.96673C0.00775146 7.87323 0.00775146 7.77973 0.00775146 7.68623C0.127986 7.52732 0.231322 7.35163 0.370912 7.21204C2.4588 5.124 4.55144 3.04068 6.64307 0.956353C7.45942 0.142811 8.60424 0.145075 9.41739 0.962246C11.4929 3.04798 13.5692 5.1329 15.6409 7.22234C15.7763 7.35889 15.8759 7.53079 15.9921 7.68627C15.9922 7.77977 15.9922 7.87327 15.9922 7.96677Z" fill="#4066CF"/>
</svg>
