<svg width="70" height="67" viewBox="0 0 70 67" fill="none" xmlns="http://www.w3.org/2000/svg">
<g clip-path="url(#clip0_1_6707)">
<path fill-rule="evenodd" clip-rule="evenodd" d="M20.7436 0.0385742H21.4263C27.0751 0.0385742 31.6972 4.66228 31.6972 10.3206V31.171H10.4788V10.3206C10.4788 4.66228 15.1006 0.0385742 20.7436 0.0385742Z" fill="#547AE3"/>
<path fill-rule="evenodd" clip-rule="evenodd" d="M0.616699 21.3631V20.7144C0.616699 15.3189 5.01651 10.9059 10.403 10.9059L31.6972 31.1716H10.403C5.01674 31.1716 0.616699 26.7583 0.616699 21.3631Z" fill="#4066CF"/>
<path fill-rule="evenodd" clip-rule="evenodd" d="M49.2563 0.0385742H48.5735C42.9247 0.0385742 38.3029 4.66228 38.3029 10.3206V31.171H59.5211V10.3206C59.5211 4.66228 54.8995 0.0385742 49.2563 0.0385742Z" fill="#547AE3"/>
<path fill-rule="evenodd" clip-rule="evenodd" d="M69.3836 21.3631V20.7144C69.3836 15.3189 64.9836 10.9059 59.5971 10.9059L38.3029 31.1716H59.5971C64.9836 31.1716 69.3836 26.7583 69.3836 21.3631Z" fill="#4066CF"/>
<path fill-rule="evenodd" clip-rule="evenodd" d="M20.7436 67.0442H21.4263C27.0751 67.0442 31.6972 62.4146 31.6972 56.7621V35.9115H10.4788V56.7621C10.4788 62.4146 15.1006 67.0442 20.7436 67.0442Z" fill="#547AE3"/>
<path fill-rule="evenodd" clip-rule="evenodd" d="M0.616699 45.7144V46.3691C0.616699 51.7585 5.01651 56.1718 10.403 56.1718L31.6972 35.9115H10.403C5.01674 35.9115 0.616699 40.3248 0.616699 45.7144Z" fill="#4066CF"/>
<path fill-rule="evenodd" clip-rule="evenodd" d="M49.2563 67.0442H48.5735C42.9247 67.0442 38.3029 62.4146 38.3029 56.7621V35.9115H59.5211V56.7621C59.5211 62.4146 54.8995 67.0442 49.2563 67.0442Z" fill="#547AE3"/>
<path fill-rule="evenodd" clip-rule="evenodd" d="M69.3836 45.7144V46.3691C69.3836 51.7585 64.9836 56.1718 59.5971 56.1718L38.3029 35.9115H59.5971C64.9836 35.9115 69.3836 40.3248 69.3836 45.7144Z" fill="#4066CF"/>
</g>
<defs>
<clipPath id="clip0_1_6707">
<rect width="69" height="67" fill="white" transform="translate(0.5)"/>
</clipPath>
</defs>
</svg>
