<svg width="14" height="14" viewBox="0 0 14 14" fill="none" xmlns="http://www.w3.org/2000/svg">
<path d="M2.24385 13.5003C1.98588 13.435 1.73477 13.3548 1.52225 13.1841C1.14368 12.8805 0.930649 12.4874 0.928872 12.002C0.922524 10.2586 0.922524 8.51507 0.92811 6.77175C0.930649 5.95392 1.60883 5.28208 2.42692 5.27472C3.01801 5.26938 3.60936 5.27218 4.20071 5.27395C4.512 5.27497 4.72629 5.48952 4.7268 5.80157C4.72832 6.92714 4.72832 8.05271 4.7268 9.17827C4.72629 9.54415 4.6486 9.75007 4.35838 10.1896C4.62194 10.4927 4.75651 10.8475 4.75321 11.2537C4.75092 11.5119 4.7527 11.7699 4.7527 12.0281C4.7527 12.1754 4.7527 12.3226 4.7527 12.4775C4.79916 12.4801 4.83573 12.4839 4.87254 12.4839C7.0475 12.4841 9.22246 12.4844 11.3974 12.4839C11.7105 12.4839 11.8758 12.3219 11.8732 12.0213C11.8717 11.8499 11.7765 11.7379 11.6376 11.6567C11.5018 11.5772 11.3949 11.4731 11.3439 11.321C11.2263 10.9698 11.4934 10.6113 11.8938 10.5816C11.94 10.5783 11.9867 10.5801 12.0332 10.5796C12.2683 10.577 12.4341 10.459 12.4902 10.2538C12.5433 10.0606 12.4598 9.8821 12.2531 9.75819C12.119 9.6777 12.0065 9.57944 11.9542 9.42685C11.8369 9.08458 12.0652 8.75349 12.4522 8.70296C12.7228 8.66767 12.8635 8.5397 12.8848 8.30991C12.9049 8.09231 12.7746 7.92067 12.5258 7.83968C12.278 7.75919 12.1035 7.60456 12.0591 7.33999C12.0175 7.09294 12.1343 6.90886 12.3234 6.76058C12.5126 6.61229 12.5722 6.44091 12.5083 6.25251C12.4425 6.05903 12.2841 5.95849 12.0418 5.95849C10.931 5.95823 9.82041 5.95899 8.70957 5.95823C7.86102 5.95747 7.27831 5.39507 7.26663 4.54397C7.26434 4.36853 7.30954 4.17886 7.3819 4.01813C7.65053 3.42145 7.93897 2.83392 8.22131 2.24358C8.31373 2.05036 8.29063 1.8452 8.15352 1.68854C8.01844 1.53442 7.80237 1.46765 7.61321 1.54636C7.5251 1.58317 7.43243 1.64944 7.38139 1.72815C6.93045 2.42259 6.48815 3.12261 6.04356 3.82136C5.97323 3.93181 5.90747 4.04556 5.83409 4.15372C5.67413 4.3896 5.37832 4.45333 5.14321 4.30632C4.90911 4.16007 4.82709 3.85944 4.97868 3.61823C5.5162 2.76333 6.05499 1.90944 6.60825 1.06495C6.81493 0.749599 7.14196 0.595478 7.50733 0.524131C7.53551 0.518545 7.56268 0.507881 7.59036 0.499756C7.71705 0.499756 7.84375 0.499756 7.97045 0.499756C7.99787 0.508389 8.02453 0.519814 8.05272 0.5254C9.05057 0.721162 9.57616 1.78985 9.1275 2.70087C8.85506 3.25388 8.5844 3.8079 8.32922 4.36903C8.18043 4.69632 8.35537 4.94312 8.71135 4.94312C9.83895 4.94337 10.9665 4.94058 12.0939 4.94413C12.9993 4.94692 13.6706 5.74038 13.5193 6.63311C13.4904 6.80425 13.4185 6.96802 13.3639 7.1427C13.5447 7.29251 13.6948 7.47964 13.7854 7.7079C13.8316 7.82419 13.8623 7.94657 13.9002 8.06616C13.9002 8.19311 13.9002 8.32007 13.9002 8.44702C13.8921 8.4752 13.8814 8.50263 13.8761 8.53132C13.8144 8.85784 13.6643 9.13663 13.4152 9.3555C13.3423 9.41948 13.3436 9.46366 13.3817 9.54491C13.6681 10.1558 13.4916 10.8733 12.9584 11.2865C12.8955 11.3352 12.8284 11.3784 12.7584 11.4276C12.7741 11.4683 12.7896 11.5066 12.8038 11.5452C13.0222 12.1436 12.8043 12.863 12.2955 13.2344C12.0926 13.3825 11.8588 13.4464 11.6198 13.4995C8.49451 13.5003 5.36918 13.5003 2.24385 13.5003ZM3.71346 6.28933C3.3034 6.28933 2.91112 6.28907 2.51883 6.28933C2.14051 6.28958 1.93993 6.4894 1.93967 6.86696C1.93942 7.76401 1.93967 8.66106 1.93967 9.55786C1.93967 9.59874 1.93967 9.63987 1.93967 9.69167C2.34922 9.69167 2.74506 9.69192 3.1409 9.69167C3.5111 9.69142 3.71321 9.49007 3.71346 9.12064C3.71372 8.22358 3.71346 7.32653 3.71346 6.42974C3.71346 6.3881 3.71346 6.34671 3.71346 6.28933ZM3.73682 12.4831C3.73682 12.0329 3.74596 11.5975 3.73327 11.1628C3.72616 10.9137 3.50526 10.7187 3.25338 10.7088C3.11424 10.7035 2.97485 10.7073 2.83545 10.7073C2.54092 10.7073 2.24664 10.7073 1.94399 10.7073C1.94399 11.1623 1.93231 11.6056 1.94881 12.0479C1.95745 12.283 2.172 12.4758 2.40635 12.4806C2.84459 12.4897 3.28334 12.4831 3.73682 12.4831Z" fill="#212225" fill-opacity="0.32"/>
</svg>
