<svg width="14" height="16" viewBox="0 0 14 16" fill="none" xmlns="http://www.w3.org/2000/svg">
<path d="M9.77603 0C9.92726 0.0349973 10.0806 0.062078 10.2289 0.106241C11.2192 0.402885 11.9296 1.28115 11.9934 2.31565C12.0204 2.75687 12.0129 3.20058 12.0042 3.64263C11.9979 3.96552 11.7721 4.21175 11.4805 4.25008C11.1693 4.29092 10.8884 4.12384 10.7964 3.83303C10.7701 3.75054 10.7639 3.6593 10.7626 3.5718C10.7589 3.24391 10.7626 2.9156 10.7605 2.58771C10.7564 1.77278 10.2339 1.25032 9.42272 1.25032C7.82201 1.2499 6.2213 1.25032 4.6206 1.25032C4.57435 1.25032 4.52769 1.25032 4.48144 1.25032C4.47894 1.2574 4.47686 1.26407 4.47436 1.27115C4.51269 1.28907 4.5506 1.30948 4.59018 1.3249C5.22388 1.57113 5.85842 1.81527 6.49128 2.06317C7.50912 2.46147 8.12324 3.33016 8.1274 4.41882C8.13574 6.47033 8.13074 8.52225 8.12907 10.5738C8.12866 10.91 7.92617 11.1666 7.63078 11.2183C7.31788 11.2733 7.01916 11.1091 6.92458 10.815C6.89208 10.7133 6.88417 10.6004 6.88375 10.4925C6.88167 8.5035 6.88208 6.51407 6.88208 4.52506C6.88208 3.85053 6.60627 3.44681 5.9759 3.20267C4.6985 2.7077 3.42027 2.21566 2.14454 1.71653C2.0233 1.66904 1.96039 1.68737 1.89164 1.79319C1.72916 2.04276 1.66958 2.31399 1.66999 2.60813C1.67166 5.64914 1.67041 8.69015 1.67208 11.7312C1.67208 12.0328 1.65958 12.3374 1.69708 12.6353C1.75332 13.0873 2.0108 13.421 2.43118 13.5902C3.35528 13.9622 4.28312 14.3255 5.21763 14.6705C5.95591 14.943 6.72002 14.483 6.86792 13.7048C6.94833 13.2827 7.1579 13.1056 7.5862 13.1044C8.19948 13.1027 8.81277 13.1044 9.42605 13.104C10.2281 13.1031 10.7522 12.6023 10.7555 11.7966C10.7576 11.3137 11.1876 11.0204 11.5821 11.1554C11.8404 11.2441 12.0038 11.4658 12.0063 11.7657C12.0138 12.6811 11.648 13.4098 10.8959 13.9331C10.4551 14.2397 9.95726 14.363 9.42314 14.358C8.98651 14.3539 8.54987 14.3576 8.11365 14.3568C8.03824 14.3568 7.97992 14.3593 7.94117 14.448C7.56203 15.3192 6.89875 15.8242 5.96424 15.9763C5.94466 15.9796 5.92716 15.9917 5.90841 16C5.73176 16 5.55511 16 5.37804 16C5.14389 15.9358 4.90266 15.8896 4.67642 15.8042C3.83191 15.4859 2.99239 15.1546 2.1512 14.8276C1.00421 14.3818 0.423424 13.5314 0.423424 12.2982C0.423424 10.7108 0.423424 9.12304 0.423424 7.53566C0.423424 5.86496 0.420923 4.19384 0.424673 2.52314C0.427173 1.4353 1.07837 0.509544 2.09663 0.144572C2.27036 0.082077 2.45452 0.0483295 2.63367 0.00124985C5.01473 -5.08307e-08 7.39538 0 9.77603 0Z" fill="#212225" fill-opacity="0.72"/>
<path d="M11.42 7.01426C11.2779 6.8776 11.1334 6.74386 10.9946 6.60387C10.7151 6.32098 10.7034 5.94559 10.9626 5.68728C11.2221 5.42855 11.5954 5.44021 11.8775 5.72102C12.3745 6.2164 12.8707 6.71303 13.3644 7.21174C13.6494 7.49963 13.6482 7.86169 13.3615 8.15125C12.8674 8.64996 12.3716 9.14659 11.8746 9.64197C11.5979 9.91778 11.213 9.92736 10.9588 9.67072C10.7026 9.41157 10.718 9.03702 11.0001 8.75454C11.1384 8.61622 11.2809 8.48206 11.4213 8.34582C11.4154 8.3329 11.41 8.32041 11.4042 8.30749C11.35 8.30749 11.2963 8.30749 11.2421 8.30749C10.728 8.30749 10.2139 8.31124 9.69974 8.30582C9.3606 8.30207 9.10603 8.06293 9.07103 7.7317C9.0402 7.44047 9.24227 7.15216 9.53767 7.078C9.61183 7.05925 9.69182 7.05842 9.76931 7.05842C10.2626 7.05675 10.7563 7.05759 11.2496 7.05759C11.2996 7.05759 11.35 7.05759 11.4 7.05759C11.4059 7.04342 11.4129 7.02884 11.42 7.01426Z" fill="#212225" fill-opacity="0.72"/>
</svg>
