<svg width="16" height="16" viewBox="0 0 16 16" fill="none" xmlns="http://www.w3.org/2000/svg">
<g clip-path="url(#clip0_1_6749)">
<path d="M0.987549 5.60928C1.03516 5.43424 1.06922 5.25369 1.13294 5.08487C1.45337 4.23746 2.24475 3.68924 3.16431 3.668C3.20972 3.6669 3.25513 3.668 3.32251 3.668C3.32251 3.59439 3.32141 3.52774 3.32288 3.46109C3.3302 3.12711 3.56458 2.88614 3.87878 2.8887C4.18713 2.89127 4.41345 3.1304 4.41895 3.45926C4.42004 3.52225 4.41895 3.58524 4.41895 3.66654C4.66394 3.66654 4.89539 3.67093 5.12647 3.66104C5.15576 3.65994 5.19605 3.58926 5.20703 3.54495C5.35681 2.92789 5.67212 2.41373 6.16138 2.01236C7.76392 0.698395 10.1772 1.51431 10.657 3.53323C10.6826 3.64127 10.7218 3.67276 10.8276 3.66946C11.0774 3.66214 11.3275 3.66727 11.593 3.66727C11.593 3.58304 11.5919 3.51566 11.5934 3.44827C11.5996 3.12894 11.827 2.892 12.1299 2.88834C12.4338 2.88467 12.6719 3.11429 12.6884 3.42996C12.692 3.50211 12.6891 3.57498 12.6891 3.642C12.9253 3.67496 13.1534 3.68851 13.3724 3.74088C14.3169 3.9661 15.016 4.84244 15.0222 5.81802C15.0303 7.10013 15.0255 8.38223 15.024 9.66434C15.0237 9.991 14.79 10.2283 14.4784 10.229C14.1616 10.2298 13.9291 9.9899 13.9287 9.65445C13.9276 8.42288 13.9283 7.19095 13.928 5.95938C13.928 5.22549 13.472 4.767 12.7407 4.767C9.58362 4.76663 6.42615 4.76663 3.26904 4.767C2.53845 4.767 2.08398 5.22623 2.08398 5.96158C2.08398 8.09073 2.08362 10.2199 2.08398 12.349C2.08398 13.0653 2.54248 13.5246 3.25769 13.5246C6.42395 13.5249 9.59057 13.5249 12.7568 13.5246C13.4446 13.5246 13.8928 13.0998 13.9287 12.4153C13.9448 12.1117 14.1865 11.877 14.4806 11.8795C14.7823 11.8825 15.02 12.126 15.0248 12.4366C15.042 13.5755 14.0748 14.5884 12.9388 14.6217C12.8748 14.6236 12.811 14.6236 12.747 14.6236C9.58508 14.6236 6.42322 14.6126 3.26172 14.6294C2.06274 14.6357 1.13184 13.7564 1.00842 12.7204C1.00623 12.7032 0.994873 12.6874 0.987549 12.6709C0.987549 10.3169 0.987549 7.96292 0.987549 5.60928ZM6.32947 3.65994C7.40503 3.65994 8.47034 3.65994 9.53674 3.65994C9.46057 3.08499 8.7146 2.50052 8.03528 2.47672C7.2395 2.44888 6.47229 2.97549 6.32947 3.65994Z" fill="#4066CF"/>
<path d="M6.32122 7.47908C6.34282 7.32637 6.34941 7.18831 6.38384 7.05758C6.50286 6.6075 6.89873 6.28707 7.36236 6.27535C7.79119 6.26436 8.22112 6.2629 8.64995 6.27572C9.21099 6.2922 9.64202 6.73824 9.67205 7.31283C9.67461 7.36263 9.67241 7.41244 9.67241 7.47103C9.77202 7.47725 9.86284 7.47616 9.95147 7.48971C10.4931 7.5732 10.863 7.99215 10.8758 8.54952C10.8849 8.94759 10.8849 9.34603 10.8758 9.74373C10.8622 10.3465 10.4466 10.7732 9.84636 10.8149C9.79656 10.8182 9.74639 10.8211 9.68523 10.8248C9.67608 10.9193 9.67095 11.0134 9.6574 11.106C9.58306 11.6187 9.18206 11.997 8.66387 12.0161C8.2354 12.0318 7.8051 12.0329 7.37664 12.0179C6.78081 11.9967 6.3604 11.5557 6.33916 10.957C6.3377 10.9167 6.33513 10.8761 6.33257 10.8303C6.21026 10.8178 6.09087 10.8164 5.97698 10.7918C5.48845 10.6864 5.15117 10.2762 5.13762 9.75802C5.127 9.35116 5.12554 8.9432 5.13799 8.53634C5.1563 7.92769 5.60601 7.49227 6.21062 7.47908C6.24688 7.47835 6.28277 7.47908 6.32122 7.47908ZM9.77093 9.71993C9.77093 9.32918 9.77093 8.95711 9.77093 8.57808C9.57317 8.57808 9.38604 8.57808 9.1989 8.57808C8.78875 8.57772 8.57854 8.36568 8.57744 7.95113C8.57708 7.7607 8.57744 7.56991 8.57744 7.38167C8.18633 7.38167 7.81499 7.38167 7.4356 7.38167C7.4356 7.57577 7.43596 7.7585 7.4356 7.94124C7.43486 8.37117 7.22722 8.57772 6.79619 8.57808C6.61126 8.57808 6.42595 8.57808 6.24102 8.57808C6.24102 8.96773 6.24102 9.33577 6.24102 9.71993C6.36773 9.71993 6.48565 9.72689 6.60283 9.71883C7.22942 9.67489 7.4832 9.88766 7.43669 10.5472C7.42827 10.6684 7.4356 10.7911 7.4356 10.9171C7.82415 10.9171 8.19219 10.9171 8.57744 10.9171C8.57744 10.723 8.57708 10.5366 8.57744 10.3502C8.57818 9.92574 8.78362 9.72066 9.20879 9.71993C9.39482 9.71993 9.58086 9.71993 9.77093 9.71993Z" fill="#4066CF"/>
</g>
<defs>
<clipPath id="clip0_1_6749">
<rect width="15" height="15" fill="white" transform="translate(0.5 0.5)"/>
</clipPath>
</defs>
</svg>
