<svg width="16" height="16" viewBox="0 0 16 16" fill="none" xmlns="http://www.w3.org/2000/svg">
<g clip-path="url(#clip0_1_6778)">
<path d="M8.3515 0.50003C8.59947 0.547315 8.85063 0.582031 9.09491 0.643848C10.8399 1.08556 12.1473 2.62212 12.3127 4.41743C12.5151 6.61443 11.0868 8.58556 8.92768 9.06731C8.61139 9.13789 8.27993 9.16291 7.95488 9.16763C6.70566 9.18576 5.4855 9.35489 4.31668 9.81541C3.65457 10.0763 3.03353 10.4111 2.49262 10.8791C1.95283 11.3462 1.68259 11.9427 1.67269 12.6554C1.6678 13.0068 1.67038 13.3584 1.67222 13.7099C1.67415 14.0792 1.91896 14.3274 2.28693 14.3275C6.09517 14.3284 9.90338 14.3284 13.7116 14.3275C14.0797 14.3275 14.329 14.0796 14.3267 13.711C14.3238 13.2525 14.3377 12.7917 14.2963 12.3363C14.2444 11.7649 13.9693 11.2897 13.5412 10.9082C13.1038 10.5185 12.6037 10.2271 12.0726 9.98472C11.766 9.8448 11.6318 9.56325 11.7199 9.2682C11.8131 8.95616 12.1493 8.75486 12.4473 8.88148C13.387 9.28083 14.2496 9.79733 14.8629 10.6448C15.2069 11.1201 15.4035 11.6569 15.4733 12.2398C15.4773 12.2724 15.4908 12.3039 15.4999 12.3359C15.4999 12.8828 15.4999 13.4297 15.4999 13.9766C15.4896 14.0078 15.4767 14.0384 15.4695 14.0703C15.3222 14.7236 14.9371 15.1707 14.309 15.4044C14.2012 15.4445 14.0874 15.4685 13.9764 15.5C9.99207 15.5 6.00769 15.5 2.02332 15.5C1.99208 15.4897 1.96147 15.4766 1.92954 15.4697C1.41286 15.3583 1.00396 15.0857 0.745708 14.6239C0.634233 14.4247 0.580063 14.1933 0.499878 13.9766C0.499878 13.4297 0.499878 12.8828 0.499878 12.3359C0.508403 12.3086 0.52144 12.2819 0.524839 12.254C0.639946 11.314 1.06566 10.543 1.79005 9.93696C2.59124 9.26668 3.50925 8.81422 4.50037 8.50288C4.77242 8.41742 5.04948 8.3479 5.32472 8.27094C5.3198 8.25494 5.31965 8.24366 5.31397 8.23804C5.29665 8.22096 5.27714 8.20616 5.25863 8.19028C4.0946 7.19331 3.55809 5.93264 3.68984 4.40272C3.8392 2.66826 5.11428 1.14034 6.79238 0.676221C7.07249 0.59876 7.36273 0.557832 7.64829 0.5C7.88275 0.500029 8.11712 0.50003 8.3515 0.50003ZM11.1639 4.84124C11.1665 3.10165 9.75356 1.67908 8.01631 1.67208C6.26928 1.66505 4.84138 3.07974 4.83602 4.82296C4.83063 6.56926 6.24708 7.99566 7.99071 7.99991C9.73601 8.00413 11.1612 6.5854 11.1639 4.84124Z" fill="#4066CF"/>
</g>
<defs>
<clipPath id="clip0_1_6778">
<rect width="15" height="15" fill="white" transform="translate(0.5 0.5)"/>
</clipPath>
</defs>
</svg>
