<svg width="16" height="16" viewBox="0 0 16 16" fill="none" xmlns="http://www.w3.org/2000/svg">
<g clip-path="url(#clip0_1_6685)">
<path d="M0.0158081 7.87503C0.139975 7.60461 0.352892 7.51919 0.643725 7.52669C1.22539 7.54211 1.80748 7.53044 2.38914 7.53128C2.69789 7.53169 2.91747 7.73294 2.91164 8.00753C2.90581 8.27794 2.69206 8.46794 2.38914 8.46836C1.80748 8.46919 1.22497 8.45794 0.643725 8.47294C0.352892 8.48044 0.140391 8.39461 0.0158081 8.12461C0.0158081 8.04169 0.0158081 7.95836 0.0158081 7.87503Z" fill="#212225" fill-opacity="0.72"/>
<path d="M7.8754 16C7.60582 15.8754 7.51998 15.662 7.52748 15.3708C7.54248 14.7883 7.53124 14.205 7.53207 13.6216C7.53249 13.312 7.73374 13.0925 8.00749 13.0979C8.27707 13.1037 8.46707 13.3179 8.46748 13.6212C8.46832 14.2041 8.45749 14.7875 8.47207 15.3704C8.47957 15.6616 8.39374 15.8745 8.12415 15.9995C8.04207 16 7.95874 16 7.8754 16Z" fill="#212225" fill-opacity="0.72"/>
<path d="M8.12499 0C8.39582 0.124167 8.47999 0.338334 8.47249 0.629167C8.4579 1.21167 8.46874 1.795 8.4679 2.37833C8.46749 2.68792 8.26624 2.9075 7.99249 2.90208C7.7229 2.89667 7.5329 2.68167 7.53249 2.37833C7.53165 1.79542 7.5429 1.21208 7.52748 0.629167C7.51998 0.3375 7.60582 0.124583 7.8754 0C7.95874 0 8.04207 0 8.12499 0Z" fill="#212225" fill-opacity="0.72"/>
<path d="M8.0058 12.1588C5.70872 12.1617 3.85038 10.3029 3.84955 8.00167C3.84872 5.69959 5.70496 3.84043 8.00246 3.84168C10.2945 3.84293 12.1454 5.69418 12.1508 7.99043C12.1558 10.2925 10.3029 12.1558 8.0058 12.1588Z" fill="#212225" fill-opacity="0.72"/>
<path d="M13.2392 2.20667C13.5125 2.21542 13.6637 2.30291 13.7408 2.49041C13.8225 2.68833 13.7812 2.86917 13.6317 3.02083C13.3471 3.30958 13.0596 3.59541 12.7729 3.8825C12.6112 4.04458 12.4512 4.20792 12.2875 4.3675C12.0729 4.5775 11.7829 4.58583 11.5937 4.39125C11.4079 4.2 11.4167 3.915 11.6217 3.70791C12.0642 3.26083 12.5058 2.81292 12.9571 2.375C13.0483 2.28708 13.1796 2.24125 13.2392 2.20667Z" fill="#212225" fill-opacity="0.72"/>
<path d="M13.7821 13.2517C13.7737 13.5196 13.6871 13.6642 13.5112 13.7484C13.3354 13.8329 13.1296 13.7984 12.9792 13.6504C12.6567 13.3334 12.3392 13.0113 12.0196 12.6913C11.8837 12.555 11.7458 12.4209 11.6125 12.2825C11.4175 12.0796 11.4108 11.7984 11.5921 11.61C11.7771 11.4179 12.0696 11.4175 12.2742 11.62C12.7287 12.0696 13.1825 12.5204 13.6267 12.98C13.7112 13.0667 13.7517 13.1967 13.7821 13.2517Z" fill="#212225" fill-opacity="0.72"/>
<path d="M2.18958 2.6892C2.22208 2.48128 2.33083 2.31212 2.50541 2.24545C2.70458 2.16962 2.88333 2.21003 3.03458 2.36045C3.39874 2.72378 3.76208 3.08878 4.12541 3.45295C4.21708 3.54503 4.31166 3.6342 4.39999 3.73003C4.58374 3.92962 4.58499 4.20795 4.40666 4.3917C4.22458 4.5792 3.93374 4.58462 3.73582 4.3892C3.27332 3.93295 2.81333 3.47378 2.36166 3.0067C2.28083 2.92337 2.24583 2.79628 2.18958 2.6892Z" fill="#212225" fill-opacity="0.72"/>
<path d="M2.7504 13.7946C2.48415 13.7809 2.34165 13.6925 2.2604 13.5142C2.17873 13.3359 2.21582 13.1354 2.3654 12.9829C2.66415 12.6788 2.96665 12.3788 3.2679 12.0771C3.41831 11.9263 3.56748 11.7738 3.71998 11.625C3.92748 11.4229 4.21373 11.4159 4.40207 11.6042C4.5904 11.7925 4.58623 12.0813 4.38206 12.2879C3.93665 12.7392 3.49081 13.1909 3.0354 13.6321C2.9454 13.7196 2.81081 13.7613 2.7504 13.7946Z" fill="#212225" fill-opacity="0.72"/>
<path d="M14.5337 7.53127C14.8504 7.53127 15.167 7.5296 15.4837 7.53169C15.7741 7.53335 15.982 7.72835 15.9841 7.99627C15.9862 8.26419 15.7779 8.4671 15.4908 8.46794C14.8575 8.47002 14.2241 8.4696 13.5908 8.46794C13.3041 8.4671 13.0912 8.26752 13.0887 8.00294C13.0862 7.73377 13.3029 7.53252 13.5991 7.53127C13.9108 7.53044 14.2225 7.53127 14.5337 7.53127Z" fill="#212225" fill-opacity="0.72"/>
</g>
<defs>
<clipPath id="clip0_1_6685">
<rect width="16" height="16" fill="white"/>
</clipPath>
</defs>
</svg>
