<svg width="16" height="16" viewBox="0 0 16 16" fill="none" xmlns="http://www.w3.org/2000/svg">
<path d="M2.95564 15.9995C2.77292 15.958 2.58693 15.9257 2.40804 15.8735C1.28479 15.5453 0.507204 14.5968 0.504757 13.529C0.498987 10.9823 0.497833 8.43553 0.50485 5.88885C0.508543 4.54298 1.70912 3.43117 3.19597 3.41462C4.84849 3.39621 6.50143 3.40896 8.15419 3.41075C8.42466 3.41104 8.66056 3.50133 8.85279 3.67505C10.075 4.77932 11.2965 5.88422 12.5179 6.98925C12.668 7.12508 12.7356 7.2898 12.7352 7.4823C12.7334 8.44578 12.7359 9.40926 12.7336 10.3728C12.7328 10.7535 12.4369 11.031 12.0419 11.0305C11.6521 11.0301 11.3543 10.747 11.353 10.3679C11.3506 9.66481 11.3523 8.96175 11.3522 8.25865C11.3522 8.20194 11.3522 8.14523 11.3522 8.06581C11.0391 8.06581 10.7355 8.0779 10.4336 8.06227C10.1539 8.04777 9.86733 8.03306 9.59898 7.96752C8.41299 7.67793 7.59589 6.70237 7.5861 5.59105C7.58342 5.28921 7.58568 4.98733 7.58568 4.65949C7.51722 4.65949 7.45689 4.65949 7.3966 4.65949C6.04903 4.65949 4.70151 4.65874 3.35394 4.65978C2.46949 4.66044 1.8851 5.19116 1.88492 5.99377C1.88432 8.46757 1.88432 10.9414 1.88492 13.4152C1.8851 14.2267 2.46704 14.7493 3.36931 14.7494C5.53463 14.7498 7.69989 14.7497 9.86521 14.7494C10.7422 14.7493 11.3015 14.2714 11.353 13.4794C11.3755 13.1331 11.6789 12.8712 12.0528 12.8755C12.4326 12.8798 12.7284 13.1564 12.734 13.5123C12.7525 14.7 11.7239 15.787 10.411 15.9682C10.3671 15.9742 10.3246 15.9889 10.2814 15.9995C7.83945 15.9995 5.39757 15.9995 2.95564 15.9995ZM8.97581 5.59017C8.95319 6.24365 9.69094 6.90187 10.3104 6.79603C9.87158 6.39957 9.42633 5.99722 8.97581 5.59017Z" fill="#4066CF"/>
<path d="M13.0456 0.000488281C13.1677 0.0258222 13.2905 0.048781 13.4118 0.0769067C14.6345 0.36033 15.4945 1.3446 15.4968 2.48775C15.5023 5.11281 15.4991 7.73787 15.4982 10.3629C15.4981 10.7549 15.2035 11.0344 14.8013 11.0318C14.4005 11.0292 14.117 10.7496 14.1169 10.3525C14.1163 7.75345 14.1174 5.15444 14.116 2.55542C14.1157 1.87661 13.6473 1.3701 12.9261 1.26431C12.8358 1.25106 12.7425 1.25114 12.6506 1.2511C10.4679 1.25043 8.28516 1.25206 6.1024 1.24952C5.56427 1.24889 5.14889 1.44065 4.8509 1.84849C4.61754 2.16787 4.20419 2.24975 3.87389 2.05191C3.54612 1.85561 3.47055 1.47898 3.7023 1.15747C4.15793 0.525333 4.79772 0.146658 5.62396 0.0286554C5.65673 0.0239886 5.68794 0.0101138 5.71984 0.000530244C8.16177 0.000488576 10.6036 0.000488281 13.0456 0.000488281Z" fill="#4066CF"/>
<path d="M6.65046 9.33803C7.40399 9.33828 8.15761 9.33244 8.91105 9.34032C9.40999 9.34553 9.73517 9.78704 9.54742 10.1936C9.42915 10.4497 9.20276 10.5845 8.89965 10.5853C7.40408 10.5895 5.90846 10.5903 4.4129 10.5853C4.00181 10.5839 3.70931 10.3093 3.71144 9.95521C3.71356 9.60195 4.00896 9.34103 4.4243 9.33882C5.16638 9.33499 5.90842 9.33778 6.65046 9.33803Z" fill="#4066CF"/>
<path d="M6.64132 13.0975C5.91069 13.0975 5.18005 13.0983 4.44942 13.0971C4.01225 13.0964 3.71043 12.8388 3.71167 12.4712C3.71292 12.1119 4.01414 11.849 4.43912 11.8483C5.91766 11.8462 7.39619 11.846 8.87473 11.8485C9.29703 11.8492 9.59682 12.1168 9.59525 12.4774C9.59368 12.8378 9.29283 13.0961 8.86775 13.097C8.12558 13.0986 7.38345 13.0975 6.64132 13.0975Z" fill="#4066CF"/>
<path d="M5.03355 8.06724C4.82669 8.06724 4.61983 8.06928 4.41301 8.06678C4.02741 8.06215 3.73062 7.81548 3.71266 7.48776C3.69328 7.13417 3.95927 6.83967 4.35249 6.82429C4.81127 6.80637 5.27217 6.80687 5.73099 6.82425C6.1148 6.83875 6.39049 7.1343 6.37516 7.47185C6.35988 7.80965 6.06277 8.06207 5.67135 8.06678C5.45876 8.06932 5.24613 8.06724 5.03355 8.06724Z" fill="#4066CF"/>
</svg>
