<svg width="13" height="14" viewBox="0 0 13 14" fill="none" xmlns="http://www.w3.org/2000/svg">
<g clip-path="url(#clip0_1_6840)">
<path d="M-0.012778 6.62468C0.0200406 6.37806 0.0445754 6.13017 0.0872714 5.88546C0.350776 4.37676 1.06705 3.1185 2.2122 2.1075C3.18433 1.24911 4.31832 0.721148 5.60494 0.55833C7.62982 0.302153 9.41573 0.853061 10.9247 2.23399C11.973 3.19306 12.6348 4.3825 12.8942 5.78127C13.2157 7.51461 12.877 9.1224 11.9205 10.6011C11.7592 10.85 11.4635 10.9185 11.2211 10.771C10.9818 10.6257 10.9018 10.3243 11.0573 10.0722C11.3297 9.63093 11.577 9.17848 11.7271 8.68046C12.2512 6.94426 12.0173 5.31831 10.9716 3.83159C10.205 2.74188 9.16592 2.01605 7.8707 1.68946C6.29637 1.29245 4.80837 1.5311 3.46154 2.43791C2.08698 3.36353 1.2595 4.66225 1.05494 6.31848C0.848791 7.98522 1.32004 9.45377 2.44703 10.7012C3.31975 11.6673 4.4085 12.25 5.69543 12.4403C6.90685 12.6193 8.05646 12.41 9.13533 11.8253C9.20989 11.7849 9.28286 11.7422 9.35837 11.7039C9.6222 11.5707 9.91534 11.6545 10.0498 11.9002C10.1833 12.1439 10.1132 12.4479 9.85575 12.5808C9.45077 12.7898 9.03943 12.9924 8.61502 13.1578C8.09215 13.3617 7.53997 13.458 6.9795 13.4984C6.94636 13.501 6.91355 13.5118 6.88073 13.5185C6.62646 13.5185 6.37188 13.5185 6.11761 13.5185C5.94587 13.4981 5.7735 13.4806 5.60208 13.4564C4.31801 13.2751 3.18242 12.7621 2.21061 11.9037C1.06578 10.8927 0.349821 9.63475 0.0863166 8.12637C0.0436205 7.88166 0.0190857 7.63377 -0.0137329 7.38747C-0.012777 7.13353 -0.012778 6.87926 -0.012778 6.62468Z" fill="#222222" fill-opacity="0.52"/>
<path d="M7.00882 4.97103C7.00882 5.61975 7.005 6.26816 7.01105 6.91689C7.01297 7.12176 6.94701 7.28394 6.80203 7.42733C6.16096 8.06299 5.52306 8.70216 4.88549 9.34164C4.7214 9.50605 4.53309 9.57615 4.30877 9.49554C3.99174 9.38179 3.87799 8.9902 4.07968 8.71936C4.11505 8.67221 4.15711 8.62951 4.19885 8.58745C4.759 8.02667 5.3185 7.46493 5.88184 6.90701C5.95895 6.83054 5.99431 6.75502 5.994 6.64319C5.98985 5.42667 5.99113 4.20983 5.99145 2.99331C5.99145 2.72694 6.11029 2.53767 6.3225 2.45929C6.65897 2.33502 7.00373 2.57686 7.00755 2.94838C7.01265 3.44002 7.00882 3.93199 7.00914 4.42363C7.00882 4.60652 7.00882 4.78877 7.00882 4.97103Z" fill="#222222" fill-opacity="0.52"/>
</g>
<defs>
<clipPath id="clip0_1_6840">
<rect width="13" height="13" fill="white" transform="translate(0 0.5)"/>
</clipPath>
</defs>
</svg>
