<svg width="16" height="16" viewBox="0 0 16 16" fill="none" xmlns="http://www.w3.org/2000/svg">
<path d="M9.2823 0.000244141C9.52783 0.0936172 9.79325 0.153867 10.0151 0.286781C10.6124 0.644607 10.915 1.19184 10.9386 1.88921C10.9437 2.0397 10.9394 2.19053 10.9394 2.36482C11.0096 2.36482 11.0701 2.36482 11.1306 2.36482C11.917 2.3649 12.7035 2.36149 13.4898 2.36653C13.9256 2.36932 14.2124 2.71094 14.129 3.11601C14.0862 3.32401 13.9657 3.48071 13.7686 3.55509C13.6578 3.59692 13.6374 3.65546 13.6375 3.76096C13.6401 5.92208 13.6398 8.08316 13.6385 10.2443C13.6384 10.3478 13.6384 10.4551 13.6131 10.5542C13.5401 10.8395 13.2655 11.022 12.961 11.0015C12.6809 10.9826 12.4431 10.7625 12.4025 10.4783C12.3908 10.3963 12.3899 10.3123 12.3899 10.2292C12.3892 8.09933 12.3894 5.9695 12.3894 3.83962C12.3894 3.77275 12.3894 3.70588 12.3894 3.62696C9.46321 3.62696 6.55006 3.62696 3.62041 3.62696C3.61775 3.68254 3.61283 3.73763 3.61283 3.79275C3.61246 6.99535 3.61196 10.198 3.61287 13.4006C3.61312 14.2369 4.13115 14.7498 4.97068 14.7499C7.01226 14.7501 9.05384 14.7508 11.0954 14.7494C11.7315 14.749 12.232 14.3554 12.3617 13.7557C12.3835 13.6546 12.3829 13.5489 12.3959 13.4457C12.4395 13.103 12.7207 12.8598 13.0476 12.8804C13.3947 12.9023 13.6404 13.1776 13.6374 13.5412C13.6282 14.6331 12.8748 15.6121 11.8157 15.9053C11.6812 15.9425 11.5437 15.9687 11.4075 16C9.13647 16 6.86543 16 4.59435 16C4.56506 15.9907 4.53635 15.9774 4.50631 15.9729C3.84216 15.8728 3.30246 15.557 2.88851 15.0305C2.51335 14.5533 2.35969 14.0055 2.36044 13.4011C2.36456 10.2034 2.36182 7.00573 2.36427 3.808C2.36436 3.67938 2.35277 3.59205 2.20603 3.5393C2.0257 3.47451 1.91812 3.32038 1.87508 3.13168C1.78145 2.72152 2.06986 2.36949 2.51165 2.36657C3.29813 2.3614 4.08461 2.36495 4.87114 2.36486C4.93168 2.36486 4.99222 2.36486 5.04659 2.36486C5.05526 2.33124 5.06005 2.32115 5.06013 2.31107C5.06118 2.18087 5.05988 2.05066 5.06234 1.9205C5.07588 1.20264 5.38538 0.644523 6.00041 0.279197C6.21844 0.1497 6.47865 0.0912009 6.7196 0.000286101C7.57379 0.000244436 8.42802 0.000244141 9.2823 0.000244141ZM6.31486 2.35403C7.44779 2.35403 8.5634 2.35403 9.68571 2.35403C9.68571 2.17224 9.69871 1.99991 9.68287 1.83025C9.65358 1.51621 9.38201 1.25768 9.06414 1.25393C8.35669 1.24555 7.64904 1.2458 6.9416 1.25368C6.61694 1.25726 6.34207 1.52246 6.31715 1.8415C6.30423 2.00658 6.31486 2.17349 6.31486 2.35403Z" fill="#D55051" fill-opacity="0.72"/>
<path d="M7.37604 9.17075C7.37604 8.30123 7.3747 7.43171 7.37679 6.56218C7.37749 6.2784 7.53766 6.05465 7.79365 5.96324C8.03527 5.87699 8.32002 5.93869 8.46901 6.14873C8.55134 6.26481 8.61855 6.42189 8.61934 6.56093C8.6293 8.3051 8.62697 10.0494 8.62501 11.7937C8.62459 12.1622 8.3531 12.4367 8.00144 12.4371C7.65036 12.4375 7.37787 12.162 7.37679 11.795C7.37429 10.9202 7.37599 10.0455 7.37604 9.17075Z" fill="#D55051" fill-opacity="0.72"/>
<path d="M11.0142 9.18094C11.0142 10.0399 11.0156 10.8989 11.0135 11.7579C11.0126 12.1038 10.8465 12.3331 10.5486 12.4145C10.1985 12.5101 9.8372 12.2803 9.77866 11.9227C9.76862 11.8614 9.76478 11.7984 9.76474 11.7362C9.76403 10.0338 9.76478 8.33146 9.76337 6.62908C9.7632 6.42246 9.80732 6.23492 9.96703 6.09284C10.1648 5.91692 10.3949 5.87792 10.6355 5.97917C10.8781 6.08121 11.0084 6.27708 11.0113 6.54145C11.0168 7.04636 11.0139 7.55139 11.0142 8.05638C11.0144 8.43125 11.0143 8.80607 11.0142 9.18094Z" fill="#D55051" fill-opacity="0.72"/>
<path d="M4.98772 9.1711C4.98789 8.30691 4.9838 7.44268 4.98947 6.57849C4.99259 6.10283 5.42717 5.79971 5.84657 5.97321C6.05915 6.06117 6.18828 6.2227 6.22444 6.45224C6.23411 6.51362 6.23711 6.57657 6.23711 6.63882C6.23778 8.33599 6.23815 10.0332 6.23724 11.7303C6.23703 12.103 6.06595 12.3424 5.75137 12.4201C5.4025 12.5064 5.03922 12.2609 4.99813 11.9036C4.98334 11.775 4.98809 11.6438 4.98797 11.5138C4.98718 10.7329 4.98755 9.952 4.98772 9.1711Z" fill="#D55051" fill-opacity="0.72"/>
</svg>
