<svg width="11" height="10" viewBox="0 0 11 10" fill="none" xmlns="http://www.w3.org/2000/svg">
<path d="M5.89404 5.98155C5.82255 6.04953 5.77912 6.08944 5.73702 6.13111C4.54097 7.32891 3.3436 8.52584 2.14974 9.72628C1.93833 9.939 1.69623 10.0329 1.40588 9.95348C0.945351 9.8276 0.751491 9.27058 1.02737 8.88023C1.07123 8.81795 1.12649 8.76356 1.18044 8.70918C2.36465 7.52234 3.54886 6.33549 4.73483 5.15041C4.78044 5.10479 4.84228 5.07541 4.89667 5.03812C4.8993 5.01137 4.90237 4.98418 4.905 4.95742C4.84886 4.92277 4.78395 4.89734 4.73833 4.85216C3.54447 3.65962 2.35325 2.46444 1.15983 1.27146C1.01509 1.12672 0.909824 0.967072 0.903684 0.756107C0.894474 0.459616 1.01684 0.231545 1.28044 0.0973342C1.54228 -0.0364377 1.79974 -0.00749066 2.0357 0.171018C2.09228 0.213562 2.14096 0.266633 2.1914 0.317071C3.3721 1.49953 4.55281 2.68198 5.73263 3.86575C5.77474 3.90786 5.80412 3.96268 5.84886 4.02453C5.92518 3.95216 5.97211 3.90918 6.01728 3.86444C7.21333 2.66663 8.4107 1.46926 9.60456 0.268826C9.81641 0.0556677 10.0598 -0.0346831 10.3497 0.0482116C10.816 0.181545 10.9993 0.748212 10.7072 1.13812C10.6581 1.20348 10.5989 1.26137 10.541 1.31926C9.3686 2.4947 8.19579 3.6697 7.02211 4.84339C6.97605 4.88944 6.92035 4.92628 6.85456 4.97891C6.91991 5.04777 6.96246 5.0947 7.00719 5.13988C8.19535 6.33023 9.38307 7.52102 10.573 8.71049C10.7164 8.85391 10.8313 9.00786 10.844 9.21926C10.8625 9.52233 10.7445 9.7583 10.4761 9.89865C10.2094 10.0381 9.94579 10.0092 9.70719 9.82277C9.63 9.76225 9.56377 9.68769 9.49404 9.61795C8.33658 8.45874 7.17912 7.29953 6.02254 6.139C5.97912 6.09646 5.94535 6.04514 5.89404 5.98155Z" fill="#212225" fill-opacity="0.32"/>
</svg>
